<svg width="178" height="128" viewBox="0 0 178 128" fill="none" xmlns="http://www.w3.org/2000/svg">
<path d="M64.9441 54.9713C64.9877 54.9366 65.023 54.8926 65.0473 54.8423C65.0715 54.7921 65.0841 54.7371 65.0841 54.6813L64.6941 47.6813L68.0641 45.6213C68.317 45.4684 68.5373 45.267 68.712 45.0287C68.8868 44.7903 69.0127 44.5197 69.0824 44.2325C69.1521 43.9452 69.1643 43.647 69.1183 43.3551C69.0722 43.0631 68.9688 42.7831 68.8141 42.5313L67.5441 40.4413C67.2316 39.9318 66.7299 39.5667 66.1489 39.4262C65.5679 39.2856 64.9549 39.381 64.4441 39.6913L64.2641 39.8013L63.4741 25.4213L79.4741 17.1713C80.3116 16.6614 81.0398 15.9906 81.6165 15.1976C82.1932 14.4046 82.6071 13.5052 82.8341 12.5513L82.8941 12.2813L85.054 8.85132C85.4119 8.27486 85.6016 7.60983 85.6016 6.9313C85.6016 6.25278 85.4119 5.58775 85.054 5.01129C84.7002 4.42912 84.1905 3.95762 83.5825 3.65012C82.9746 3.34261 82.2927 3.21139 81.6141 3.2713L77.6141 3.62131C76.6229 3.33863 75.5837 3.26556 74.5627 3.40674C73.5417 3.54792 72.5613 3.90027 71.6841 4.44131L56.9441 14.8513L44.524 7.57129L44.7041 7.4613C45.2136 7.14881 45.5786 6.64715 45.7192 6.06616C45.8598 5.48517 45.7644 4.87216 45.4541 4.3613L44.1841 2.2713C43.8697 1.76379 43.3682 1.4005 42.788 1.26013C42.2077 1.11976 41.5956 1.21359 41.0841 1.5213L37.7141 3.5813L31.7141 0.0413184C31.6633 0.014182 31.6066 -2.3602e-06 31.5491 -2.36271e-06C31.4915 -2.36523e-06 31.4348 0.014182 31.3841 0.0413184L25.6641 2.9913C25.6098 3.02136 25.5639 3.06461 25.5307 3.11703C25.4975 3.16946 25.478 3.22936 25.4741 3.29129C25.4592 3.35037 25.4592 3.41223 25.4741 3.47131C25.5071 3.52123 25.5517 3.56241 25.6041 3.59131L28.5441 5.23129L30.6541 7.88131L29.1341 8.81131C29.0958 8.83482 29.0626 8.86566 29.0364 8.90207C29.0102 8.93847 28.9914 8.97971 28.9812 9.0234C28.9709 9.0671 28.9695 9.11238 28.9768 9.15664C28.9842 9.20091 29.0002 9.24328 29.024 9.28131L29.1941 9.56131L27.8741 10.3713C27.6521 10.5098 27.4932 10.7297 27.4315 10.9839C27.3698 11.2382 27.4102 11.5065 27.5441 11.7313L29.4341 14.8313C29.5725 15.0533 29.7925 15.2121 30.0467 15.2738C30.301 15.3355 30.5693 15.2951 30.7941 15.1613L32.1141 14.3513L32.2841 14.6313C32.3317 14.7082 32.4073 14.7635 32.4949 14.7859C32.5825 14.8083 32.6754 14.7959 32.7541 14.7513L35.0041 13.3713L43.6741 24.2813L30.774 33.4613L22.3241 29.9413L18.7041 31.8013L24.3741 38.1113L22.054 40.8013L24.4241 44.6913L27.8141 43.7613L30.8141 51.6713L34.1241 49.3113L34.8641 40.1813L49.214 32.7613L54.6641 45.6113L52.4041 46.9913C52.3279 47.0371 52.2727 47.1109 52.2503 47.1968C52.2279 47.2828 52.24 47.3741 52.2841 47.4513L52.464 47.7413L51.1341 48.5513C50.9164 48.6912 50.7615 48.91 50.7019 49.1618C50.6422 49.4135 50.6824 49.6786 50.8141 49.9013L52.7041 53.0013C52.8424 53.2206 53.0605 53.3776 53.3124 53.4391C53.5642 53.5007 53.8301 53.462 54.054 53.3313L55.3841 52.5313L55.554 52.8113C55.5776 52.8495 55.6084 52.8827 55.6448 52.9089C55.6812 52.9352 55.7224 52.9539 55.7661 52.9642C55.8098 52.9744 55.8551 52.9759 55.8994 52.9685C55.9436 52.9612 55.986 52.9451 56.024 52.9213L57.5441 52.0013L58.934 55.0813L59.0441 58.4513C59.05 58.5106 59.067 58.5682 59.0941 58.6213C59.1306 58.6744 59.1784 58.7188 59.2341 58.7513C59.2876 58.7811 59.3478 58.7967 59.4091 58.7967C59.4703 58.7967 59.5306 58.7811 59.5841 58.7513L64.9441 54.9713ZM38.4541 3.97131L41.4541 2.1113C41.8109 1.89306 42.2398 1.82525 42.6465 1.92273C43.0533 2.02021 43.4049 2.27504 43.6241 2.63132L44.9041 4.72131C45.1187 5.08005 45.1835 5.5089 45.0843 5.91504C44.9851 6.32118 44.7299 6.67191 44.3741 6.89129L43.8841 7.19131L41.1441 5.5813L38.4541 3.97131ZM30.524 14.5813C30.4548 14.6225 30.3722 14.6351 30.2938 14.6164C30.2154 14.5978 30.1473 14.5493 30.1041 14.4813L28.214 11.3713C28.1923 11.3374 28.1777 11.2994 28.1709 11.2597C28.1642 11.2199 28.1655 11.1793 28.1749 11.1401C28.1842 11.1009 28.2013 11.064 28.2252 11.0315C28.2492 10.9991 28.2794 10.9718 28.3141 10.9513L29.6341 10.1413L31.8541 13.7713L30.524 14.5813ZM32.7841 13.9913L29.8641 9.2113L31.1641 8.42129L34.6741 12.8413L32.7841 13.9913ZM35.4441 12.7213L31.5141 7.72131L29.1341 4.72131C29.1057 4.68625 29.0719 4.65588 29.0341 4.63131L26.5841 3.2713L31.5841 0.691282L40.5841 5.95129L43.7941 7.84131L56.4341 15.2513L44.2941 23.8113L35.4441 12.7213ZM64.7941 40.2913C65.1509 40.0731 65.5798 40.0053 65.9865 40.1028C66.3933 40.2002 66.7449 40.455 66.964 40.8113L68.2341 42.9013C68.4523 43.2582 68.5201 43.687 68.4226 44.0938C68.3252 44.5006 68.0703 44.8521 67.714 45.0713L64.6541 46.9313L64.4841 43.7613L64.304 40.5813L64.7941 40.2913ZM81.6841 3.95129C82.2375 3.89675 82.7951 4.00143 83.2911 4.25299C83.7872 4.50455 84.201 4.89253 84.4841 5.37131C84.78 5.83966 84.937 6.38231 84.937 6.93631C84.937 7.49031 84.78 8.03296 84.4841 8.50131L83.054 10.7813L83.054 10.6813C83.054 10.4202 83.0339 10.1594 82.994 9.90131C83.0038 9.82495 83.0038 9.74765 82.994 9.6713C82.9543 9.37747 82.8942 9.08677 82.8141 8.8013L82.8141 8.72131C82.7341 8.45671 82.6406 8.19637 82.5341 7.94131L82.4341 7.73129C82.3141 7.45136 82.1737 7.18063 82.0141 6.9213C81.8541 6.66129 81.674 6.41129 81.494 6.17129L81.3441 5.9913C81.1645 5.77845 80.9743 5.57486 80.774 5.38132L80.7241 5.3313C80.5022 5.13077 80.2684 4.94377 80.024 4.7713L79.8441 4.6413C79.6255 4.49154 79.3985 4.35464 79.1641 4.23129C79.1398 4.21109 79.1129 4.19428 79.0841 4.1813L81.6841 3.95129ZM77.4641 4.29129C79.0943 4.76676 80.4863 5.83755 81.3641 7.29129C82.2468 8.74368 82.5536 10.474 82.2241 12.1413L82.1641 12.4213C81.7437 14.17 80.6469 15.6805 79.1141 16.6213L62.9741 24.9613L49.3441 31.9613L28.2341 42.8813L27.3141 41.3713C29.8141 39.838 32.3141 38.3113 34.8141 36.7913C35.0317 36.6529 35.1875 36.4358 35.2489 36.1853C35.3102 35.9348 35.2724 35.6702 35.1433 35.4469C35.0143 35.2236 34.8039 35.0589 34.5562 34.987C34.3085 34.9151 34.0426 34.9418 33.8141 35.0613L26.304 39.6313L25.4141 38.1713L57.1741 15.5813L57.2841 15.5113L71.9441 5.00131C72.7572 4.50234 73.6664 4.18033 74.6123 4.05627C75.5583 3.93222 76.5197 4.0089 77.4341 4.28131L77.4641 4.29129ZM19.8841 32.0013L22.4441 30.6813L30.1041 33.8713L25.0041 37.6213L25.0041 37.5413L24.9541 37.6013L19.8841 32.0013ZM24.8241 43.9013L22.9741 40.9013L24.8641 38.7113L25.6741 40.0513C25.4447 40.1919 25.2805 40.4178 25.2176 40.6794C25.1548 40.941 25.1985 41.2169 25.339 41.4463C25.4796 41.6757 25.7056 41.8399 25.9672 41.9027C26.2288 41.9655 26.5047 41.9219 26.7341 41.7813L27.5841 43.1713L24.8241 43.9013ZM33.5841 48.9013L31.244 50.5713L28.554 43.5713L28.6341 43.5713L28.6341 43.5013L34.2941 40.6813L33.5841 48.9013ZM53.8141 52.7213C53.7436 52.7616 53.6601 52.7727 53.5816 52.7521C53.5031 52.7315 53.4357 52.681 53.3941 52.6113L51.494 49.5113C51.4725 49.476 51.4583 49.4367 51.4522 49.3958C51.4461 49.3549 51.4482 49.3132 51.4584 49.2731C51.4687 49.2331 51.4869 49.1954 51.5119 49.1625C51.5369 49.1295 51.5682 49.1019 51.6041 49.0813L52.9241 48.2813L55.1441 51.9113L53.8141 52.7213ZM56.0641 52.1313L53.1541 47.3513L55.0441 46.1913L55.2641 46.6713L57.3741 51.3413L56.0641 52.1313ZM59.7241 54.9513L59.7241 54.8313L58.1541 51.3313L55.5441 45.5713L49.9441 32.4613L61.464 26.4613L62.8241 25.7513L63.6341 40.3913L63.8441 44.0513L64.4141 54.5113L59.8341 57.7713L59.7241 54.9513Z" fill="#999999"/>
<path d="M156.944 95.9713C156.988 95.9366 157.023 95.8926 157.047 95.8423C157.072 95.7921 157.084 95.7371 157.084 95.6813L156.694 88.6813L160.064 86.6213C160.317 86.4684 160.537 86.267 160.712 86.0287C160.887 85.7903 161.013 85.5197 161.082 85.2325C161.152 84.9452 161.164 84.647 161.118 84.3551C161.072 84.0631 160.969 83.7831 160.814 83.5313L159.544 81.4413C159.232 80.9318 158.73 80.5667 158.149 80.4262C157.568 80.2856 156.955 80.381 156.444 80.6913L156.264 80.8013L155.474 66.4213L171.474 58.1713C172.312 57.6614 173.04 56.9906 173.616 56.1976C174.193 55.4046 174.607 54.5052 174.834 53.5513L174.894 53.2813L177.054 49.8513C177.412 49.2749 177.602 48.6098 177.602 47.9313C177.602 47.2528 177.412 46.5877 177.054 46.0113C176.7 45.4291 176.19 44.9576 175.583 44.6501C174.975 44.3426 174.293 44.2114 173.614 44.2713L169.614 44.6213C168.623 44.3386 167.584 44.2656 166.563 44.4067C165.542 44.5479 164.561 44.9003 163.684 45.4413L148.944 55.8513L136.524 48.5713L136.704 48.4613C137.214 48.1488 137.579 47.6472 137.719 47.0662C137.86 46.4852 137.764 45.8722 137.454 45.3613L136.184 43.2713C135.87 42.7638 135.368 42.4005 134.788 42.2601C134.208 42.1198 133.596 42.2136 133.084 42.5213L129.714 44.5813L123.714 41.0413C123.663 41.0142 123.607 41 123.549 41C123.492 41 123.435 41.0142 123.384 41.0413L117.664 43.9913C117.61 44.0214 117.564 44.0646 117.531 44.117C117.498 44.1695 117.478 44.2294 117.474 44.2913C117.459 44.3504 117.459 44.4122 117.474 44.4713C117.507 44.5212 117.552 44.5624 117.604 44.5913L120.544 46.2313L122.654 48.8813L121.134 49.8113C121.096 49.8348 121.063 49.8657 121.036 49.9021C121.01 49.9385 120.991 49.9797 120.981 50.0234C120.971 50.0671 120.969 50.1124 120.977 50.1566C120.984 50.2009 121 50.2433 121.024 50.2813L121.194 50.5613L119.874 51.3713C119.652 51.5098 119.493 51.7297 119.432 51.9839C119.37 52.2382 119.41 52.5065 119.544 52.7313L121.434 55.8313C121.573 56.0533 121.792 56.2121 122.047 56.2738C122.301 56.3355 122.569 56.2951 122.794 56.1613L124.114 55.3513L124.284 55.6313C124.332 55.7082 124.407 55.7635 124.495 55.7859C124.583 55.8083 124.675 55.7959 124.754 55.7513L127.004 54.3713L135.674 65.2813L122.774 74.4613L114.324 70.9413L110.704 72.8013L116.374 79.1113L114.054 81.8013L116.424 85.6913L119.814 84.7613L122.814 92.6713L126.124 90.3113L126.864 81.1813L141.214 73.7613L146.664 86.6113L144.404 87.9913C144.328 88.0371 144.273 88.1109 144.25 88.1968C144.228 88.2828 144.24 88.3741 144.284 88.4513L144.464 88.7413L143.134 89.5513C142.916 89.6912 142.762 89.91 142.702 90.1618C142.642 90.4135 142.682 90.6786 142.814 90.9013L144.704 94.0013C144.842 94.2206 145.061 94.3776 145.312 94.4391C145.564 94.5007 145.83 94.462 146.054 94.3313L147.384 93.5313L147.554 93.8113C147.578 93.8495 147.608 93.8827 147.645 93.9089C147.681 93.9352 147.722 93.9539 147.766 93.9642C147.81 93.9744 147.855 93.9759 147.899 93.9685C147.944 93.9612 147.986 93.9451 148.024 93.9213L149.544 93.0013L150.934 96.0813L151.044 99.4513C151.05 99.5106 151.067 99.5682 151.094 99.6213C151.131 99.6744 151.178 99.7188 151.234 99.7513C151.288 99.7811 151.348 99.7967 151.409 99.7967C151.47 99.7967 151.531 99.7811 151.584 99.7513L156.944 95.9713ZM130.454 44.9713L133.454 43.1113C133.811 42.8931 134.24 42.8252 134.647 42.9227C135.053 43.0202 135.405 43.275 135.624 43.6313L136.904 45.7213C137.119 46.0801 137.184 46.5089 137.084 46.915C136.985 47.3212 136.73 47.6719 136.374 47.8913L135.884 48.1913L133.144 46.5813L130.454 44.9713ZM122.524 55.5813C122.455 55.6225 122.372 55.6351 122.294 55.6164C122.215 55.5978 122.147 55.5493 122.104 55.4813L120.214 52.3713C120.192 52.3374 120.178 52.2994 120.171 52.2597C120.164 52.2199 120.166 52.1793 120.175 52.1401C120.184 52.1009 120.201 52.064 120.225 52.0315C120.249 51.9991 120.279 51.9718 120.314 51.9513L121.634 51.1413L123.854 54.7713L122.524 55.5813ZM124.784 54.9913L121.864 50.2113L123.164 49.4213L126.674 53.8413L124.784 54.9913ZM127.444 53.7213L123.514 48.7213L121.134 45.7213C121.106 45.6863 121.072 45.6559 121.034 45.6313L118.584 44.2713L123.584 41.6913L132.584 46.9513L135.794 48.8413L148.434 56.2513L136.294 64.8113L127.444 53.7213ZM156.794 81.2913C157.151 81.0731 157.58 81.0053 157.987 81.1028C158.393 81.2002 158.745 81.455 158.964 81.8113L160.234 83.9013C160.452 84.2582 160.52 84.687 160.423 85.0938C160.325 85.5006 160.07 85.8521 159.714 86.0713L156.654 87.9313L156.484 84.7613L156.304 81.5813L156.794 81.2913ZM173.684 44.9513C174.238 44.8968 174.795 45.0014 175.291 45.253C175.787 45.5045 176.201 45.8925 176.484 46.3713C176.78 46.8397 176.937 47.3823 176.937 47.9363C176.937 48.4903 176.78 49.033 176.484 49.5013L175.054 51.7813L175.054 51.6813C175.054 51.4202 175.034 51.1594 174.994 50.9013C175.004 50.8249 175.004 50.7477 174.994 50.6713C174.954 50.3775 174.894 50.0868 174.814 49.8013L174.814 49.7213C174.734 49.4567 174.641 49.1964 174.534 48.9413L174.434 48.7313C174.314 48.4514 174.174 48.1806 174.014 47.9213C173.854 47.6613 173.674 47.4113 173.494 47.1713L173.344 46.9913C173.165 46.7784 172.974 46.5749 172.774 46.3813L172.724 46.3313C172.502 46.1308 172.268 45.9438 172.024 45.7713L171.844 45.6413C171.626 45.4915 171.398 45.3546 171.164 45.2313C171.14 45.2111 171.113 45.1943 171.084 45.1813L173.684 44.9513ZM169.464 45.2913C171.094 45.7668 172.486 46.8375 173.364 48.2913C174.247 49.7437 174.554 51.474 174.224 53.1413L174.164 53.4213C173.744 55.17 172.647 56.6805 171.114 57.6213L154.974 65.9613L141.344 72.9613L120.234 83.8813L119.314 82.3713C121.814 80.838 124.314 79.3113 126.814 77.7913C127.032 77.6529 127.188 77.4358 127.249 77.1853C127.31 76.9348 127.272 76.6702 127.143 76.4469C127.014 76.2236 126.804 76.0589 126.556 75.987C126.309 75.9151 126.043 75.9418 125.814 76.0613L118.304 80.6313L117.414 79.1713L149.174 56.5813L149.284 56.5113L163.944 46.0013C164.757 45.5023 165.666 45.1803 166.612 45.0563C167.558 44.9322 168.52 45.0089 169.434 45.2813L169.464 45.2913ZM111.884 73.0013L114.444 71.6813L122.104 74.8713L117.004 78.6213L117.004 78.5413L116.954 78.6013L111.884 73.0013ZM116.824 84.9013L114.974 81.9013L116.864 79.7113L117.674 81.0513C117.445 81.1919 117.28 81.4178 117.218 81.6794C117.155 81.941 117.198 82.2169 117.339 82.4463C117.48 82.6757 117.706 82.8399 117.967 82.9027C118.229 82.9655 118.505 82.9219 118.734 82.7813L119.584 84.1713L116.824 84.9013ZM125.584 89.9013L123.244 91.5713L120.554 84.5713L120.634 84.5713L120.634 84.5013L126.294 81.6813L125.584 89.9013ZM145.814 93.7213C145.744 93.7616 145.66 93.7727 145.582 93.7521C145.503 93.7315 145.436 93.681 145.394 93.6113L143.494 90.5113C143.473 90.476 143.458 90.4367 143.452 90.3958C143.446 90.3549 143.448 90.3132 143.458 90.2731C143.469 90.2331 143.487 90.1954 143.512 90.1625C143.537 90.1295 143.568 90.1019 143.604 90.0813L144.924 89.2813L147.144 92.9113L145.814 93.7213ZM148.064 93.1313L145.154 88.3513L147.044 87.1913L147.264 87.6713L149.374 92.3413L148.064 93.1313ZM151.724 95.9513L151.724 95.8313L150.154 92.3313L147.544 86.5713L141.944 73.4613L153.464 67.4613L154.824 66.7513L155.634 81.3913L155.844 85.0513L156.414 95.5113L151.834 98.7713L151.724 95.9513Z" fill="#999999"/>
<path d="M6.85745 87.0281L6.71744 86.2506C6.70982 86.2084 6.71075 86.1651 6.72019 86.1233C6.72963 86.0815 6.74738 86.042 6.77239 86.0071C6.7974 85.9723 6.82915 85.9428 6.86576 85.9205C6.90237 85.8982 6.94309 85.8835 6.98551 85.8772C7.0277 85.8696 7.07099 85.8705 7.11282 85.88C7.15464 85.8894 7.19414 85.9071 7.22897 85.9321C7.2638 85.9571 7.29326 85.9889 7.31559 86.0255C7.33791 86.0621 7.35265 86.1029 7.35892 86.1453C7.47412 86.785 7.58754 87.4148 7.6992 88.0349C7.71713 88.1189 7.7016 88.2066 7.65587 88.2794C7.61015 88.3521 7.53785 88.4041 7.45436 88.4244C7.36895 88.44 7.28083 88.4222 7.20807 88.3749C7.13531 88.3275 7.08342 88.2542 7.06304 88.1698L6.85745 87.0281ZM6.48089 84.3728C6.36569 83.7331 6.35875 83.0739 6.32229 82.42C6.31968 82.3777 6.32551 82.3352 6.33947 82.2951C6.35342 82.255 6.37521 82.2181 6.40356 82.1865C6.43191 82.1549 6.46627 82.1293 6.50463 82.1111C6.54298 82.093 6.58457 82.0826 6.62697 82.0807C6.66933 82.078 6.71179 82.0839 6.75187 82.0978C6.79196 82.1118 6.82887 82.1336 6.86045 82.1619C6.89203 82.1903 6.91766 82.2246 6.93584 82.263C6.95402 82.3013 6.96438 82.3429 6.96633 82.3853C7.00102 83.0294 7.05541 83.6699 7.1277 84.297C7.13537 84.3828 7.1092 84.4682 7.05477 84.5349C7.00035 84.6017 6.92198 84.6445 6.8364 84.6543C6.79456 84.6592 6.75216 84.6559 6.71162 84.6444C6.67109 84.6329 6.63322 84.6135 6.6002 84.5874C6.56717 84.5612 6.53963 84.5288 6.51916 84.492C6.49868 84.4552 6.48567 84.4147 6.48089 84.3728ZM7.51059 90.0909C7.49565 90.0112 7.51051 89.9289 7.55236 89.8595C7.59421 89.7901 7.66011 89.7386 7.73752 89.7147C7.82112 89.694 7.90951 89.7068 7.98381 89.7503C8.05811 89.7939 8.1124 89.8648 8.13514 89.9479C8.27474 90.441 8.42063 90.9126 8.59152 91.4102L8.70808 91.7753C8.72253 91.8154 8.7288 91.8581 8.72653 91.9007C8.72425 91.9433 8.71347 91.9851 8.69481 92.0235C8.67616 92.0618 8.65002 92.0961 8.61792 92.1242C8.58583 92.1524 8.54842 92.1738 8.50792 92.1873C8.42781 92.2133 8.34065 92.2067 8.26536 92.1689C8.19007 92.1311 8.13273 92.0652 8.10577 91.9854L7.97938 91.622C7.81025 91.1343 7.66436 90.6627 7.51591 90.1204L7.51059 90.0909ZM6.21191 80.5093L6.20305 80.4601C6.19965 79.8206 6.20257 79.1596 6.22692 78.5049C6.23119 78.4204 6.26778 78.3407 6.32914 78.2824C6.39051 78.2241 6.47193 78.1915 6.55659 78.1916C6.5999 78.1921 6.64265 78.2015 6.68223 78.2191C6.72182 78.2367 6.75742 78.2621 6.78689 78.2938C6.81635 78.3256 6.83907 78.363 6.85366 78.4037C6.86825 78.4445 6.8744 78.4878 6.87175 78.5311C6.85546 79.1741 6.83917 79.8172 6.85241 80.455C6.8528 80.5398 6.81954 80.6212 6.7599 80.6815C6.70026 80.7418 6.61914 80.7759 6.53435 80.7764C6.46485 80.7667 6.40046 80.7345 6.35109 80.6846C6.30172 80.6348 6.27011 80.5701 6.26112 80.5005L6.21191 80.5093ZM8.76827 93.7458C8.75619 93.6731 8.76958 93.5984 8.80619 93.5344C8.8428 93.4705 8.90039 93.4211 8.96921 93.3946C9.0082 93.3772 9.05038 93.368 9.09309 93.3677C9.1358 93.3674 9.17811 93.3759 9.21738 93.3926C9.25665 93.4094 9.29204 93.4341 9.32132 93.4652C9.35059 93.4963 9.37312 93.5331 9.3875 93.5733C9.62355 94.1506 9.88283 94.7441 10.1618 95.334C10.1794 95.3722 10.1893 95.4135 10.1909 95.4555C10.1925 95.4975 10.1858 95.5394 10.1712 95.5789C10.1566 95.6183 10.1343 95.6545 10.1057 95.6853C10.0772 95.7161 10.0428 95.741 10.0046 95.7586C9.92619 95.7946 9.83684 95.7984 9.75565 95.7694C9.67445 95.7403 9.60786 95.6806 9.57012 95.6031C9.29116 95.0132 9.03011 94.4099 8.79051 93.8129L8.76827 93.7458ZM6.3374 76.6358L6.32323 76.5571C6.38065 75.9167 6.43631 75.2666 6.52148 74.6111C6.53208 74.5271 6.57555 74.4507 6.64236 74.3987C6.70917 74.3466 6.79387 74.3232 6.87792 74.3335C6.92006 74.3374 6.96097 74.35 6.9981 74.3703C7.03523 74.3906 7.06778 74.4183 7.09379 74.4517C7.1198 74.4851 7.13869 74.5235 7.1493 74.5645C7.15991 74.6054 7.16202 74.6482 7.1555 74.69C7.08823 75.3321 7.02096 75.9741 6.9716 76.6028C6.96985 76.6453 6.95942 76.6869 6.94094 76.7251C6.92246 76.7633 6.89634 76.7973 6.86418 76.825C6.83201 76.8527 6.7945 76.8735 6.75397 76.8861C6.71344 76.8987 6.67074 76.9029 6.62854 76.8983C6.56476 76.8843 6.50705 76.8506 6.4636 76.8018C6.42016 76.7531 6.3932 76.6919 6.3866 76.6269L6.3374 76.6358ZM10.4037 97.2413C10.3923 97.173 10.4028 97.1028 10.4335 97.0407C10.4643 96.9786 10.5138 96.9278 10.5751 96.8955C10.6502 96.8565 10.7378 96.8489 10.8186 96.8743C10.8993 96.8998 10.9667 96.9562 11.006 97.0312C11.3011 97.5979 11.6158 98.161 11.9485 98.7108C11.9894 98.7858 12.0004 98.8734 11.9796 98.9563C11.9587 99.0391 11.9075 99.111 11.836 99.1578C11.7602 99.2008 11.6704 99.2121 11.5864 99.1891C11.5023 99.1662 11.4307 99.1109 11.3872 99.0354C11.0545 98.4857 10.7362 97.9029 10.4411 97.3362L10.4037 97.2413ZM6.80007 72.7726L6.78057 72.6644C6.88898 72.025 7.00722 71.3839 7.13708 70.7509C7.14523 70.7091 7.16162 70.6694 7.1853 70.6341C7.20898 70.5987 7.23947 70.5684 7.27499 70.545C7.3105 70.5216 7.35034 70.5055 7.39216 70.4976C7.43398 70.4898 7.47695 70.4904 7.51855 70.4993C7.56031 70.5075 7.60002 70.5238 7.63537 70.5475C7.67072 70.5712 7.70099 70.6017 7.72442 70.6372C7.74785 70.6727 7.76395 70.7125 7.7718 70.7544C7.77965 70.7962 7.77908 70.8392 7.77012 70.8807C7.63849 71.5039 7.51847 72.1352 7.4199 72.7728C7.40518 72.8562 7.35797 72.9304 7.28864 72.979C7.21931 73.0277 7.13353 73.0469 7.05006 73.0324C6.99778 73.0126 6.95185 72.9789 6.91713 72.9351C6.8824 72.8913 6.86017 72.8389 6.85281 72.7834L6.80007 72.7726ZM12.3756 100.575C12.3655 100.513 12.3726 100.449 12.3962 100.391C12.4198 100.333 12.459 100.283 12.5094 100.246C12.5478 100.207 12.5949 100.179 12.6467 100.164C12.6985 100.148 12.7534 100.145 12.8065 100.156C12.8596 100.166 12.9093 100.19 12.9512 100.224C12.9931 100.258 13.0259 100.302 13.0468 100.352C13.3957 100.879 13.7561 101.413 14.1345 101.934C14.1596 101.969 14.1776 102.007 14.1876 102.048C14.1976 102.09 14.1994 102.132 14.1927 102.174C14.1861 102.216 14.1712 102.256 14.1489 102.292C14.1267 102.328 14.0975 102.359 14.063 102.384C13.9933 102.432 13.9076 102.452 13.8239 102.438C13.7401 102.425 13.6647 102.38 13.6133 102.313C13.2331 101.782 12.8611 101.239 12.5006 100.704L12.3756 100.575ZM7.58909 68.9726C7.57215 68.9322 7.56429 68.8885 7.56605 68.8447C7.7272 68.2162 7.89821 67.5859 8.08083 66.9637C8.09193 66.9228 8.11105 66.8845 8.13706 66.8511C8.16307 66.8176 8.19546 66.7897 8.23236 66.7689C8.26925 66.7481 8.30991 66.7348 8.35199 66.7298C8.39406 66.7248 8.4367 66.7282 8.47744 66.7398C8.56106 66.7641 8.63169 66.8205 8.67395 66.8966C8.71621 66.9727 8.72667 67.0625 8.70304 67.1463C8.51865 67.7587 8.34588 68.3791 8.19278 68.996C8.18354 69.0371 8.16629 69.0759 8.14201 69.1103C8.11774 69.1447 8.08693 69.1739 8.05133 69.1964C8.01573 69.2189 7.97605 69.234 7.93456 69.2411C7.89308 69.2482 7.85061 69.2471 7.80957 69.2378C7.76324 69.212 7.7238 69.1754 7.69461 69.1311C7.66541 69.0868 7.64731 69.0362 7.64185 68.9835L7.58909 68.9726ZM14.6574 103.71C14.6469 103.654 14.6513 103.597 14.6702 103.543C14.6892 103.49 14.722 103.442 14.7652 103.406C14.7982 103.379 14.8363 103.358 14.8773 103.346C14.9183 103.334 14.9613 103.33 15.0038 103.335C15.0464 103.339 15.0875 103.352 15.1249 103.373C15.1622 103.394 15.195 103.422 15.2213 103.456C15.6256 103.952 16.0398 104.446 16.4997 104.912C16.5543 104.979 16.5816 105.063 16.5763 105.149C16.5711 105.235 16.5335 105.316 16.4712 105.375C16.4395 105.403 16.4027 105.424 16.3628 105.437C16.3229 105.451 16.2807 105.456 16.2386 105.454C16.1966 105.451 16.1555 105.44 16.1178 105.421C16.08 105.402 16.0463 105.376 16.0186 105.344C15.5866 104.863 15.1706 104.359 14.7332 103.849C14.7051 103.812 14.6839 103.772 14.6708 103.728L14.6574 103.71ZM8.67849 65.2608C8.65445 65.212 8.64463 65.1574 8.65013 65.1033C8.86404 64.4856 9.07973 63.8778 9.33478 63.2629C9.36853 63.1838 9.43095 63.1205 9.5095 63.0856C9.58805 63.0507 9.6769 63.0469 9.75816 63.0749C9.83721 63.1086 9.90056 63.171 9.93544 63.2496C9.97033 63.3281 9.97415 63.4169 9.94617 63.4982C9.70903 64.0998 9.49157 64.6978 9.2562 65.3092C9.24331 65.35 9.22239 65.3877 9.19465 65.4203C9.1669 65.4528 9.13293 65.4795 9.0947 65.4987C9.05648 65.5179 9.0148 65.5293 8.97212 65.5321C8.92944 65.5349 8.88662 65.5291 8.84621 65.5151C8.81515 65.4821 8.79148 65.4428 8.77674 65.3999C8.76201 65.357 8.75656 65.3114 8.76077 65.2663L8.67849 65.2608ZM17.2124 106.613C17.2039 106.56 17.2085 106.505 17.2259 106.454C17.2433 106.403 17.2729 106.358 17.3121 106.321C17.3759 106.265 17.4583 106.234 17.5433 106.236C17.6282 106.238 17.7094 106.271 17.771 106.329C18.2093 106.789 18.6773 107.243 19.1416 107.678C19.2016 107.738 19.2362 107.819 19.2382 107.903C19.2402 107.988 19.2095 108.07 19.1525 108.133C19.1242 108.164 19.0899 108.19 19.0517 108.208C19.0136 108.226 18.9722 108.236 18.9301 108.238C18.8879 108.24 18.8458 108.233 18.8061 108.219C18.7665 108.205 18.7301 108.182 18.699 108.154C18.223 107.711 17.7533 107.247 17.3033 106.779C17.2629 106.739 17.2358 106.687 17.2257 106.631L17.2124 106.613ZM10.1273 61.6265C10.1172 61.5626 10.1267 61.4971 10.1545 61.4387C10.4131 60.8435 10.6931 60.2545 10.9749 59.6754C10.993 59.6357 11.019 59.6002 11.0513 59.5709C11.0835 59.5417 11.1215 59.5193 11.1627 59.5053C11.2039 59.4912 11.2476 59.4857 11.291 59.4891C11.3344 59.4925 11.3767 59.5047 11.4153 59.525C11.4529 59.5441 11.4863 59.5705 11.5136 59.6027C11.541 59.6348 11.5617 59.672 11.5746 59.7122C11.5875 59.7524 11.5923 59.7947 11.5888 59.8368C11.5853 59.8788 11.5735 59.9197 11.5541 59.9572C11.2722 60.5363 10.9932 61.0743 10.7515 61.7071C10.7143 61.7838 10.6489 61.8431 10.569 61.8726C10.4891 61.9022 10.4009 61.8997 10.3228 61.8656C10.2769 61.8461 10.2364 61.8158 10.2047 61.7773C10.173 61.7388 10.151 61.6932 10.1407 61.6444L10.1273 61.6265ZM20.096 109.254C20.0882 109.206 20.0907 109.158 20.1035 109.112C20.1162 109.066 20.1389 109.023 20.1698 108.986C20.1975 108.955 20.2311 108.929 20.2687 108.91C20.3064 108.891 20.3474 108.88 20.3894 108.878C20.4313 108.875 20.4734 108.88 20.5133 108.894C20.5531 108.907 20.5899 108.928 20.6215 108.956C21.1003 109.357 21.6156 109.793 22.1186 110.16C22.1884 110.21 22.236 110.285 22.2512 110.369C22.2665 110.454 22.2481 110.541 22.2001 110.612C22.1762 110.648 22.1454 110.678 22.1095 110.702C22.0736 110.725 22.0333 110.741 21.991 110.749C21.9488 110.757 21.9055 110.756 21.8636 110.746C21.8218 110.737 21.7822 110.719 21.7474 110.694C21.2293 110.299 20.7139 109.864 20.2271 109.474C20.1902 109.447 20.1594 109.412 20.1365 109.373C20.1136 109.333 20.0992 109.289 20.0943 109.244L20.096 109.254ZM11.8478 58.1465C11.834 58.075 11.8459 58.0009 11.8812 57.9372C12.1944 57.3626 12.5307 56.8042 12.8572 56.2475C12.8811 56.2119 12.912 56.1814 12.9479 56.1579C12.9838 56.1344 13.0241 56.1184 13.0663 56.1108C13.1085 56.1032 13.1519 56.1042 13.1937 56.1136C13.2356 56.1231 13.2751 56.1409 13.3099 56.166C13.3789 56.2145 13.4259 56.2881 13.4408 56.3711C13.4558 56.454 13.4374 56.5394 13.3897 56.6089C13.0614 57.1557 12.7402 57.7419 12.4218 58.287C12.3733 58.3559 12.2997 58.4029 12.2167 58.4179C12.1338 58.4328 12.0484 58.4144 11.9789 58.3667C11.9451 58.3437 11.9164 58.3141 11.8944 58.2796C11.8725 58.2451 11.8578 58.2065 11.8513 58.1662L11.8478 58.1465ZM23.2064 111.63C23.1966 111.544 23.217 111.458 23.2641 111.386C23.3156 111.318 23.3907 111.272 23.4746 111.257C23.5584 111.242 23.6448 111.259 23.7168 111.304C24.2394 111.668 24.7817 112.027 25.3205 112.367C25.3894 112.416 25.4365 112.489 25.4514 112.572C25.4663 112.655 25.4479 112.74 25.4003 112.81C25.3502 112.877 25.2767 112.922 25.1945 112.937C25.1123 112.952 25.0276 112.935 24.9574 112.89C24.3972 112.544 23.8155 112.191 23.3206 111.813C23.2638 111.766 23.2237 111.702 23.2064 111.63ZM13.9061 54.8495C13.892 54.7656 13.909 54.6795 13.9539 54.6072C14.3233 54.0631 14.7043 53.5271 15.0889 53.0108C15.1389 52.9409 15.2142 52.8933 15.2987 52.8781C15.3833 52.8629 15.4704 52.8812 15.5416 52.9292C15.6105 52.9777 15.6576 53.0514 15.6725 53.1343C15.6874 53.2172 15.6691 53.3027 15.6214 53.3721C15.2466 53.8867 14.8737 54.4111 14.5123 54.9436C14.4623 55.0134 14.387 55.061 14.3025 55.0762C14.218 55.0914 14.1308 55.0731 14.0596 55.0251C14.017 55.013 13.9776 54.9916 13.9443 54.9625C13.9109 54.9333 13.8844 54.8972 13.8667 54.8566L13.9061 54.8495ZM26.5312 113.673C26.5162 113.599 26.5274 113.521 26.5628 113.454C26.6128 113.384 26.6881 113.337 26.7726 113.321C26.8572 113.306 26.9443 113.325 27.0155 113.373C27.5687 113.679 28.1415 113.983 28.7188 114.255C28.7942 114.294 28.8516 114.36 28.8793 114.44C28.907 114.52 28.9028 114.608 28.8675 114.685C28.8503 114.724 28.8252 114.759 28.7938 114.788C28.7623 114.817 28.7252 114.84 28.6848 114.854C28.6443 114.868 28.6014 114.873 28.5588 114.87C28.5162 114.866 28.4747 114.854 28.437 114.834C27.8481 114.554 27.3146 114.243 26.7006 113.937C26.6415 113.922 26.5878 113.89 26.5457 113.845C26.5036 113.801 26.4747 113.746 26.4623 113.686L26.5312 113.673ZM16.261 51.7328C16.2499 51.6867 16.2499 51.6385 16.261 51.5923C16.2721 51.5462 16.294 51.5033 16.3249 51.4673C16.7426 50.9653 17.162 50.4732 17.6029 49.9873C17.6312 49.9561 17.6655 49.9308 17.7036 49.9128C17.7418 49.8948 17.7832 49.8846 17.8253 49.8827C17.8675 49.8807 17.9096 49.8872 17.9492 49.9016C17.9889 49.916 18.0253 49.9381 18.0564 49.9666C18.1203 50.0254 18.1586 50.107 18.1628 50.1937C18.167 50.2805 18.1368 50.3654 18.0789 50.43C17.6541 50.8926 17.2347 51.3847 16.8251 51.8751C16.7751 51.9449 16.6998 51.9925 16.6153 52.0077C16.5308 52.0229 16.4436 52.0046 16.3724 51.9566C16.3295 51.9355 16.2914 51.9059 16.2604 51.8696C16.2294 51.8332 16.2061 51.7909 16.1921 51.7452L16.261 51.7328ZM30.0157 115.362C30.0012 115.303 30.008 115.241 30.0348 115.186C30.0684 115.107 30.1316 115.044 30.2111 115.011C30.2905 114.977 30.3798 114.976 30.4599 115.008C31.0435 115.259 31.6451 115.496 32.2413 115.703C32.2815 115.717 32.3184 115.739 32.35 115.767C32.3817 115.796 32.4073 115.83 32.4256 115.868C32.4438 115.906 32.4543 115.948 32.4563 115.99C32.4584 116.033 32.4519 116.075 32.4374 116.115C32.4072 116.194 32.3476 116.259 32.2709 116.296C32.1942 116.332 32.1063 116.338 32.0257 116.311C31.416 116.086 30.8046 115.85 30.2049 115.623C30.1467 115.607 30.0944 115.574 30.054 115.529C30.0135 115.484 29.9866 115.429 29.9763 115.369L30.0157 115.362ZM18.8641 48.8661C18.8538 48.814 18.8567 48.7602 18.8724 48.7094C18.8881 48.6587 18.9161 48.6127 18.9541 48.5755C19.4101 48.1175 19.8876 47.6657 20.3686 47.2336C20.4312 47.1768 20.5138 47.147 20.5982 47.1508C20.6827 47.1547 20.7622 47.1918 20.8194 47.254C20.877 47.3181 20.9073 47.4021 20.9038 47.4881C20.9003 47.5742 20.8633 47.6555 20.8007 47.7146C20.3277 48.1351 19.8601 48.5851 19.4023 49.0333C19.3726 49.0638 19.3371 49.088 19.2979 49.1046C19.2586 49.1212 19.2165 49.1298 19.174 49.1299C19.1314 49.13 19.0893 49.1216 19.05 49.1052C19.0107 49.0888 18.9751 49.0647 18.9452 49.0344C18.8822 48.9968 18.8304 48.9429 18.7952 48.8785L18.8641 48.8661ZM33.6565 116.678C33.6344 116.632 33.6252 116.581 33.6299 116.53C33.6544 116.449 33.7101 116.381 33.7848 116.341C33.8595 116.301 33.9471 116.292 34.0283 116.316C34.6505 116.499 35.2709 116.672 35.8861 116.815C35.9271 116.824 35.9659 116.841 36 116.866C36.0341 116.89 36.0629 116.922 36.0846 116.958C36.1063 116.994 36.1205 117.034 36.1262 117.075C36.1319 117.117 36.1291 117.159 36.118 117.2C36.1087 117.241 36.0915 117.28 36.0672 117.314C36.0429 117.349 36.0121 117.378 35.9765 117.4C35.9409 117.423 35.9012 117.438 35.8597 117.445C35.8183 117.452 35.7758 117.451 35.7347 117.442C35.108 117.29 34.4777 117.119 33.8457 116.939C33.7833 116.926 33.7258 116.897 33.68 116.852C33.6343 116.808 33.6022 116.752 33.5876 116.69L33.6565 116.678ZM21.7387 46.2654C21.7292 46.2098 21.7341 46.1526 21.753 46.0994C21.7719 46.0462 21.8041 45.9988 21.8466 45.9616C22.3565 45.5581 22.8741 45.1601 23.3995 44.7674C23.4336 44.7423 23.4724 44.7242 23.5136 44.7142C23.5547 44.7042 23.5975 44.7025 23.6393 44.7091C23.6812 44.7158 23.7213 44.7306 23.7573 44.7529C23.7933 44.7752 23.8246 44.8044 23.8493 44.8388C23.8744 44.873 23.8925 44.9117 23.9025 44.9529C23.9125 44.994 23.9142 45.0368 23.9076 45.0786C23.9009 45.1205 23.886 45.1606 23.8638 45.1966C23.8415 45.2327 23.8123 45.2639 23.7779 45.2886C23.2665 45.6652 22.7489 46.0632 22.2625 46.4658C22.2295 46.493 22.1914 46.5134 22.1505 46.5256C22.1095 46.5379 22.0665 46.5418 22.0239 46.5371C21.9814 46.5325 21.9403 46.5194 21.9029 46.4985C21.8656 46.4777 21.8327 46.4495 21.8064 46.4158C21.7464 46.3869 21.6982 46.3382 21.6698 46.2779L21.7387 46.2654ZM37.4321 117.614L37.4126 117.505C37.4292 117.421 37.4783 117.346 37.5492 117.297C37.6201 117.248 37.7074 117.229 37.7923 117.244C38.2653 117.331 38.7463 117.407 39.2239 117.464L39.6915 117.522C39.7756 117.532 39.852 117.576 39.904 117.643C39.956 117.709 39.9794 117.794 39.9691 117.878C39.9651 117.92 39.9526 117.962 39.9325 117.999C39.9124 118.036 39.8851 118.069 39.852 118.096C39.819 118.123 39.781 118.143 39.7402 118.155C39.6994 118.167 39.6567 118.17 39.6144 118.166L39.1467 118.108C38.6478 118.045 38.1667 117.969 37.674 117.885C37.5926 117.88 37.5156 117.847 37.4569 117.79C37.3982 117.734 37.3618 117.658 37.3543 117.577L37.4321 117.614ZM41.2836 118.068L41.2694 117.989C41.2758 117.904 41.3149 117.825 41.3785 117.768C41.4421 117.711 41.5254 117.681 41.6107 117.684C42.2376 117.724 42.8825 117.75 43.5336 117.754C43.5753 117.754 43.6166 117.762 43.6551 117.778C43.6935 117.795 43.7283 117.818 43.7574 117.848C43.7865 117.878 43.8093 117.913 43.8244 117.952C43.8395 117.991 43.8466 118.033 43.8452 118.074C43.8456 118.159 43.8123 118.241 43.7527 118.301C43.6931 118.361 43.612 118.395 43.5272 118.396C42.8662 118.393 42.2115 118.369 41.5747 118.331C41.5307 118.336 41.4861 118.333 41.4435 118.32C41.4008 118.308 41.3611 118.287 41.3267 118.259C41.2923 118.232 41.2638 118.197 41.2431 118.158C41.2223 118.119 41.2096 118.076 41.2059 118.031L41.2836 118.068ZM45.1609 118.102L45.152 118.052C45.1495 117.968 45.1802 117.886 45.2375 117.825C45.2949 117.763 45.3743 117.726 45.4585 117.723C46.13 117.69 46.774 117.655 47.3906 117.619C47.4324 117.615 47.4744 117.62 47.5143 117.633C47.5541 117.646 47.5909 117.666 47.6224 117.694C47.654 117.722 47.6796 117.755 47.6978 117.793C47.716 117.831 47.7264 117.872 47.7282 117.914C47.732 117.956 47.7274 117.998 47.7146 118.038C47.7019 118.079 47.6814 118.116 47.6541 118.148C47.6269 118.181 47.5935 118.207 47.5559 118.227C47.5183 118.246 47.4773 118.258 47.4352 118.261C46.783 118.307 46.139 118.342 45.4833 118.369C45.4364 118.383 45.3868 118.386 45.3385 118.377C45.2902 118.369 45.2447 118.349 45.2056 118.319C45.1665 118.289 45.1351 118.251 45.1138 118.207C45.0925 118.162 45.082 118.114 45.0831 118.065L45.1609 118.102ZM49.0226 117.823C49.0189 117.781 49.0235 117.738 49.0362 117.698C49.0489 117.658 49.0695 117.62 49.0967 117.588C49.124 117.556 49.1574 117.529 49.1949 117.51C49.2325 117.49 49.2736 117.479 49.3157 117.475C49.9456 117.362 50.5896 117.327 51.2248 117.243C51.2672 117.237 51.3105 117.239 51.3521 117.25C51.3937 117.261 51.4327 117.28 51.4668 117.306C51.5008 117.332 51.5293 117.364 51.5505 117.402C51.5717 117.439 51.5852 117.48 51.5901 117.523C51.5965 117.565 51.5943 117.609 51.5835 117.65C51.5728 117.692 51.5539 117.731 51.5278 117.765C51.5017 117.799 51.469 117.828 51.4317 117.849C51.3943 117.87 51.3531 117.883 51.3105 117.888C50.6707 118.004 50.0186 118.05 49.3799 118.114C49.329 118.134 49.2739 118.14 49.2198 118.133C49.1657 118.126 49.1144 118.104 49.0708 118.071C49.0272 118.039 48.9927 117.995 48.9707 117.945C48.9486 117.895 48.9397 117.84 48.9449 117.786L49.0226 117.823ZM52.865 117.324C52.8574 117.282 52.8585 117.239 52.8681 117.198C52.8777 117.157 52.8958 117.118 52.9211 117.084C52.9464 117.049 52.9784 117.021 53.0152 117C53.052 116.979 53.0927 116.965 53.1349 116.96C53.7746 116.845 54.4044 116.732 55.0343 116.618C55.1178 116.603 55.2039 116.622 55.2736 116.67C55.3433 116.719 55.3909 116.793 55.4059 116.876C55.4121 116.918 55.4101 116.96 55.3998 117.001C55.3896 117.042 55.3714 117.08 55.3464 117.114C55.3213 117.148 55.2899 117.176 55.2538 117.198C55.2177 117.22 55.1777 117.234 55.1361 117.24C54.5062 117.353 53.8665 117.469 53.2268 117.584C53.1783 117.603 53.1256 117.611 53.0736 117.605C53.0215 117.6 52.9716 117.582 52.9282 117.552C52.8848 117.523 52.8493 117.483 52.8247 117.437C52.8001 117.391 52.7873 117.339 52.7873 117.287L52.865 117.324ZM56.6942 116.695C56.6792 116.612 56.6963 116.527 56.7421 116.456C56.788 116.386 56.8591 116.335 56.9408 116.316C57.5412 116.207 58.1711 116.094 58.8127 115.877C58.8963 115.856 58.9847 115.869 59.059 115.913C59.1333 115.956 59.1876 116.027 59.2104 116.11C59.2285 116.194 59.2146 116.281 59.1714 116.354C59.1282 116.428 59.0588 116.483 58.9771 116.508C58.3185 116.687 57.6743 116.834 57.0265 116.961C56.943 116.976 56.8569 116.957 56.7872 116.908C56.7175 116.86 56.6699 116.786 56.6549 116.702L56.6942 116.695ZM60.4364 115.696C60.4219 115.619 60.4362 115.54 60.4765 115.472C60.5169 115.405 60.5805 115.355 60.6553 115.332C61.2495 115.133 61.8518 114.923 62.4703 114.69C62.551 114.66 62.6401 114.664 62.7186 114.699C62.7971 114.734 62.8587 114.798 62.8903 114.878C62.9198 114.959 62.9166 115.048 62.8814 115.127C62.8462 115.205 62.7818 115.267 62.7018 115.298C62.0735 115.534 61.4613 115.745 60.8573 115.946C60.7745 115.972 60.6847 115.965 60.6073 115.926C60.5298 115.886 60.471 115.818 60.4435 115.736L60.4364 115.696ZM64.0737 114.34C64.0596 114.267 64.0721 114.192 64.1089 114.127C64.1458 114.063 64.2046 114.014 64.2746 113.989C64.8501 113.743 65.4436 113.484 66.0352 113.215C66.115 113.179 66.2058 113.176 66.2876 113.207C66.3694 113.238 66.4355 113.3 66.4715 113.38C66.5042 113.459 66.5051 113.547 66.4739 113.627C66.4427 113.706 66.382 113.771 66.3044 113.806C65.7029 114.077 65.1094 114.337 64.5142 114.586C64.4349 114.616 64.3472 114.613 64.2693 114.58C64.1915 114.547 64.1294 114.485 64.0959 114.407L64.0737 114.34ZM67.6058 112.739C67.5948 112.669 67.6066 112.598 67.6392 112.535C67.6718 112.473 67.7236 112.422 67.787 112.391C68.3573 112.116 68.9338 111.819 69.5103 111.522C69.5472 111.501 69.5879 111.488 69.6301 111.484C69.6722 111.48 69.7147 111.484 69.7551 111.497C69.7954 111.509 69.8328 111.53 69.8648 111.558C69.8968 111.586 69.9228 111.62 69.9412 111.658C69.9619 111.695 69.9748 111.735 69.9791 111.778C69.9835 111.82 69.9792 111.862 69.9664 111.903C69.9537 111.943 69.9329 111.98 69.9052 112.012C69.8775 112.044 69.8435 112.07 69.8054 112.089C69.2306 112.395 68.6541 112.692 68.0741 112.969C68.0362 112.989 67.9948 113 67.9524 113.003C67.9101 113.006 67.8675 113.001 67.8272 112.987C67.7869 112.974 67.7498 112.952 67.7179 112.924C67.686 112.896 67.66 112.862 67.6414 112.824L67.6058 112.739ZM71.0398 110.932C71.0265 110.864 71.0349 110.795 71.064 110.733C71.0931 110.671 71.1412 110.62 71.2014 110.587C71.7645 110.273 72.3161 109.95 72.8658 109.617C72.9016 109.594 72.9417 109.579 72.9836 109.571C73.0256 109.564 73.0685 109.565 73.11 109.575C73.1515 109.585 73.1906 109.602 73.2251 109.627C73.2596 109.652 73.2888 109.684 73.311 109.72C73.3543 109.794 73.3668 109.883 73.3458 109.966C73.3247 110.05 73.2719 110.122 73.1985 110.167C72.6488 110.5 72.0892 110.834 71.5162 111.151C71.443 111.193 71.3559 111.205 71.274 111.184C71.192 111.162 71.1219 111.109 71.079 111.036L71.0398 110.932ZM74.3544 108.912C74.3437 108.849 74.3516 108.784 74.3771 108.725C74.4026 108.667 74.4446 108.617 74.4981 108.581C75.0443 108.229 75.5789 107.869 76.092 107.502C76.1262 107.476 76.1656 107.457 76.2076 107.447C76.2496 107.436 76.2932 107.435 76.3357 107.443C76.3783 107.45 76.4187 107.467 76.4545 107.491C76.4903 107.515 76.5206 107.547 76.5435 107.583C76.5683 107.617 76.5861 107.655 76.5959 107.695C76.6056 107.736 76.6071 107.778 76.6003 107.819C76.5935 107.86 76.5784 107.899 76.5561 107.934C76.5338 107.969 76.5046 107.999 76.4703 108.023C75.9393 108.403 75.4047 108.764 74.8505 109.128C74.8153 109.151 74.7759 109.167 74.7345 109.174C74.6931 109.182 74.6507 109.182 74.6095 109.173C74.5683 109.165 74.5292 109.148 74.4944 109.124C74.4597 109.1 74.43 109.07 74.407 109.035L74.3544 108.912ZM75.3418 99.8944C75.2266 99.2547 75.1983 98.5892 75.1636 97.9452C75.1595 97.9025 75.1643 97.8594 75.1777 97.8187C75.1912 97.778 75.2129 97.7405 75.2415 97.7086C75.2701 97.6768 75.3051 97.6512 75.3441 97.6335C75.3831 97.6158 75.4254 97.6063 75.4682 97.6058C75.5106 97.6032 75.5531 97.609 75.5931 97.623C75.6332 97.6369 75.6701 97.6587 75.7017 97.687C75.7333 97.7154 75.7589 97.7498 75.7771 97.7881C75.7953 97.8265 75.8057 97.8681 75.8076 97.9105C75.8387 98.5348 75.9047 99.1834 75.9869 99.8087C75.9932 99.8512 75.991 99.8945 75.9803 99.9361C75.9696 99.9776 75.9506 100.017 75.9245 100.051C75.8984 100.085 75.8657 100.113 75.8284 100.134C75.7911 100.156 75.7498 100.169 75.7072 100.174C75.6568 100.192 75.6027 100.198 75.5496 100.191C75.4964 100.184 75.4459 100.164 75.4022 100.133C75.3586 100.101 75.3232 100.06 75.2991 100.012C75.2751 99.9643 75.263 99.9112 75.2641 99.8576L75.3418 99.8944ZM75.6857 101.804C75.6682 101.722 75.6832 101.637 75.7274 101.567C75.7716 101.496 75.8416 101.446 75.9224 101.426C76.0065 101.408 76.0942 101.423 76.1669 101.469C76.2397 101.515 76.2917 101.587 76.312 101.671C76.4272 102.31 76.6292 102.924 76.8259 103.509C76.8498 103.591 76.8414 103.68 76.8024 103.757C76.7635 103.834 76.6968 103.893 76.6159 103.922C76.5755 103.935 76.5329 103.94 76.4906 103.936C76.4483 103.933 76.4072 103.921 76.3696 103.901C76.332 103.881 76.2987 103.854 76.2716 103.822C76.2446 103.789 76.2243 103.751 76.212 103.711C76.0117 103.107 75.8357 102.468 75.6804 101.774L75.6857 101.804ZM75.1435 96.0284L75.1311 95.9595C75.1532 95.3017 75.2149 94.6459 75.316 93.9956C75.3286 93.9105 75.3739 93.8336 75.4423 93.7814C75.5108 93.7293 75.5969 93.7059 75.6823 93.7163C75.7243 93.7224 75.7647 93.7369 75.801 93.7588C75.8374 93.7807 75.8691 93.8096 75.8941 93.8438C75.9192 93.8781 75.9372 93.917 75.9471 93.9583C75.957 93.9996 75.9586 94.0424 75.9518 94.0843C75.8551 94.714 75.7964 95.3489 75.776 95.9856C75.7741 96.0282 75.7637 96.0701 75.7455 96.1086C75.7272 96.1472 75.7014 96.1817 75.6696 96.2102C75.6378 96.2386 75.6007 96.2604 75.5603 96.2743C75.52 96.2881 75.4772 96.2938 75.4347 96.2909C75.391 96.2963 75.3467 96.2927 75.3046 96.2803C75.2624 96.2678 75.2233 96.2468 75.1896 96.2186C75.1559 96.1903 75.1284 96.1554 75.1088 96.116C75.0892 96.0767 75.0779 96.0337 75.0756 95.9898L75.1435 96.0284ZM76.9138 105.464C76.9012 105.394 76.9122 105.322 76.945 105.259C76.9778 105.196 77.0306 105.146 77.0951 105.116C77.1726 105.083 77.2597 105.081 77.3386 105.111C77.4175 105.14 77.4823 105.198 77.5197 105.274C77.6533 105.564 77.8067 105.852 77.9565 106.12C78.3569 105.804 78.7554 105.478 79.1343 105.156C79.201 105.099 79.2873 105.072 79.3743 105.079C79.4613 105.086 79.5419 105.127 79.5985 105.194C79.6492 105.261 79.6733 105.345 79.6659 105.429C79.6585 105.513 79.6201 105.591 79.5583 105.648C79.1517 105.986 78.7271 106.336 78.2811 106.681L78.4453 106.916C78.4926 106.988 78.5095 107.076 78.4924 107.161C78.4754 107.246 78.4258 107.32 78.3542 107.369C78.319 107.392 78.2796 107.408 78.2383 107.416C78.1969 107.423 78.1544 107.423 78.1132 107.414C78.072 107.406 78.0329 107.389 77.9982 107.365C77.9634 107.342 77.9337 107.311 77.9107 107.276L77.6475 106.886L77.5841 106.817C77.5605 106.764 77.5502 106.707 77.554 106.649C77.3489 106.3 77.1599 105.928 76.979 105.544L76.9138 105.464ZM75.7564 92.2093C75.7375 92.1624 75.7285 92.1122 75.7298 92.0617C75.9255 91.4144 76.2072 90.7964 76.5674 90.2241C76.6174 90.1543 76.6927 90.1067 76.7772 90.0915C76.8617 90.0763 76.9489 90.0946 77.0201 90.1426C77.0558 90.1665 77.0862 90.1973 77.1097 90.2332C77.1332 90.2692 77.1492 90.3094 77.1568 90.3517C77.1644 90.3939 77.1635 90.4372 77.154 90.4791C77.1445 90.521 77.1267 90.5605 77.1016 90.5953C76.7784 91.1222 76.5217 91.6872 76.3376 92.2773C76.3257 92.3176 76.3057 92.355 76.2788 92.3873C76.2519 92.4196 76.2188 92.4461 76.1814 92.4652C76.1439 92.4843 76.103 92.4956 76.0611 92.4984C76.0192 92.5012 75.9771 92.4955 75.9375 92.4815C75.867 92.4655 75.804 92.426 75.7588 92.3696C75.7135 92.3131 75.6888 92.243 75.6885 92.1707L75.7564 92.2093ZM79.1007 108.637C79.0914 108.587 79.0939 108.536 79.1082 108.487C79.1224 108.439 79.1479 108.394 79.1826 108.358C79.2425 108.298 79.3233 108.263 79.408 108.261C79.4928 108.259 79.5751 108.29 79.6379 108.347C79.9679 108.663 80.3347 108.938 80.7304 109.166C80.8662 109.243 81.0038 109.33 81.1495 109.406C81.2163 109.456 81.2617 109.529 81.2765 109.611C81.2913 109.694 81.2744 109.778 81.2292 109.849C81.2053 109.884 81.1745 109.915 81.1386 109.938C81.1026 109.962 81.0624 109.978 81.0201 109.985C80.9779 109.993 80.9346 109.992 80.8927 109.982C80.8508 109.973 80.8113 109.955 80.7765 109.93C80.6308 109.855 80.4932 109.768 80.3458 109.683C79.9218 109.419 79.5261 109.112 79.1649 108.767C79.1047 108.726 79.0586 108.667 79.0328 108.598L79.1007 108.637ZM80.4812 104.171C80.4709 104.119 80.4737 104.065 80.4894 104.015C80.5051 103.964 80.5332 103.918 80.5711 103.881C81.0567 103.417 81.5127 102.959 81.9195 102.51C81.9809 102.449 82.0632 102.414 82.1496 102.412C82.236 102.409 82.3201 102.44 82.3847 102.497C82.4155 102.526 82.4403 102.561 82.4575 102.6C82.4748 102.639 82.4842 102.68 82.4852 102.723C82.4862 102.765 82.4788 102.807 82.4634 102.847C82.448 102.886 82.4249 102.922 82.3955 102.953C81.9806 103.414 81.5461 103.878 81.0211 104.348C80.9571 104.406 80.8731 104.436 80.787 104.433C80.701 104.429 80.6197 104.392 80.5605 104.33C80.5216 104.312 80.4878 104.284 80.4621 104.25C80.4364 104.215 80.4197 104.175 80.4133 104.133L80.4812 104.171ZM77.9591 89.1505C77.9465 89.0806 77.9575 89.0086 77.9903 88.9456C78.0231 88.8827 78.0759 88.8325 78.1404 88.8029C78.358 88.7027 78.5874 88.6306 78.8232 88.5884C79.2987 88.5094 79.7857 88.5362 80.2497 88.6669C80.2906 88.678 80.3289 88.6971 80.3623 88.7231C80.3957 88.7491 80.4237 88.7815 80.4445 88.8184C80.4653 88.8553 80.4786 88.896 80.4836 88.938C80.4886 88.9801 80.4852 89.0227 80.4735 89.0635C80.4634 89.1038 80.4452 89.1417 80.42 89.1749C80.3949 89.2081 80.3634 89.2359 80.3273 89.2566C80.2912 89.2773 80.2513 89.2906 80.21 89.2955C80.1686 89.3005 80.1267 89.2971 80.0868 89.2855C79.7123 89.186 79.321 89.1665 78.9384 89.2282C78.7553 89.2588 78.5772 89.3148 78.4095 89.3945C78.3713 89.4121 78.33 89.422 78.288 89.4236C78.246 89.4252 78.2041 89.4185 78.1646 89.4039C78.1252 89.3893 78.089 89.3671 78.0582 89.3385C78.0274 89.3099 78.0025 89.2755 77.9849 89.2373L77.9591 89.1505ZM82.3906 110.656C82.3785 110.589 82.3874 110.52 82.416 110.458C82.4334 110.419 82.4584 110.384 82.4895 110.355C82.5205 110.326 82.5571 110.303 82.597 110.289C82.637 110.274 82.6794 110.267 82.7219 110.269C82.7645 110.271 82.8062 110.281 82.8447 110.299C83.422 110.571 84.0155 110.82 84.6064 110.998C84.6459 111.013 84.682 111.036 84.7127 111.064C84.7434 111.093 84.7682 111.128 84.7855 111.166C84.8028 111.205 84.8123 111.246 84.8135 111.288C84.8148 111.33 84.8077 111.372 84.7927 111.412C84.7778 111.451 84.7553 111.487 84.7265 111.518C84.6976 111.549 84.663 111.574 84.6246 111.591C84.5862 111.608 84.5447 111.618 84.5026 111.619C84.4604 111.62 84.4185 111.613 84.3791 111.598C83.7713 111.382 83.1662 111.126 82.5674 110.847C82.5088 110.836 82.4545 110.809 82.4111 110.768C82.3677 110.727 82.337 110.675 82.3227 110.617L82.3906 110.656ZM83.0959 101.313C83.0881 101.268 83.0899 101.222 83.1012 101.178C83.1125 101.134 83.1332 101.092 83.1617 101.057C83.5468 100.555 83.9002 100.03 84.2197 99.4845C84.2697 99.4147 84.345 99.3671 84.4295 99.3519C84.5141 99.3367 84.6012 99.355 84.6725 99.403C84.7414 99.4515 84.7884 99.5251 84.8033 99.608C84.8183 99.6909 84.7999 99.7764 84.7522 99.8459C84.4164 100.415 84.047 100.963 83.6457 101.488C83.6218 101.524 83.591 101.554 83.5551 101.578C83.5192 101.601 83.4789 101.617 83.4366 101.625C83.3944 101.632 83.3511 101.631 83.3092 101.622C83.2674 101.612 83.2278 101.595 83.193 101.569C83.1407 101.541 83.0974 101.498 83.0683 101.445C83.0391 101.393 83.0252 101.334 83.028 101.274L83.0959 101.313ZM81.5938 89.8676C81.5802 89.7885 81.5942 89.707 81.6335 89.637C81.6851 89.5691 81.7602 89.5231 81.844 89.508C81.9279 89.4929 82.0143 89.5098 82.0863 89.5554C82.6549 89.9019 83.1945 90.2941 83.6996 90.7281C83.7313 90.7557 83.7572 90.7893 83.7759 90.827C83.7946 90.8647 83.8057 90.9057 83.8085 90.9476C83.8113 90.9896 83.8059 91.0317 83.7924 91.0715C83.779 91.1113 83.7578 91.1482 83.7302 91.1798C83.6728 91.2447 83.5923 91.2844 83.506 91.2904C83.4196 91.2965 83.3344 91.2684 83.2686 91.2121C82.7949 90.803 82.2868 90.4356 81.7499 90.1139C81.6901 90.0914 81.6377 90.0529 81.5982 90.0027C81.5587 89.9525 81.5337 89.8925 81.5259 89.8291L81.5938 89.8676ZM86.0233 111.983C86.0059 111.939 85.9974 111.892 85.9985 111.845C86.0096 111.804 86.0287 111.766 86.0547 111.732C86.0808 111.699 86.1131 111.671 86.15 111.65C86.1869 111.629 86.2276 111.616 86.2697 111.611C86.3117 111.606 86.3544 111.609 86.3951 111.621C87.0138 111.784 87.637 111.916 88.2665 112.026C88.3499 112.041 88.4241 112.088 88.4727 112.157C88.5214 112.226 88.5406 112.312 88.5261 112.396C88.52 112.438 88.5055 112.478 88.4836 112.514C88.4617 112.551 88.4328 112.582 88.3986 112.608C88.3643 112.633 88.3254 112.651 88.2841 112.661C88.2428 112.67 88.2 112.672 88.1581 112.665C87.5071 112.549 86.8625 112.411 86.2322 112.24C86.1583 112.232 86.0897 112.198 86.0389 112.143C85.9881 112.089 85.9584 112.018 85.9554 111.944L86.0233 111.983ZM85.0085 97.9403C85.0011 97.884 85.0082 97.8267 85.0294 97.7739C85.2438 97.1975 85.3814 96.5954 85.4385 95.9831C85.4416 95.9411 85.4529 95.9002 85.4718 95.8627C85.4908 95.8251 85.5169 95.7917 85.5488 95.7642C85.5806 95.7368 85.6176 95.7159 85.6575 95.7028C85.6975 95.6896 85.7396 95.6844 85.7815 95.6876C85.824 95.6893 85.8656 95.6998 85.9038 95.7183C85.942 95.7367 85.976 95.7629 86.0037 95.795C86.0314 95.8272 86.0522 95.8647 86.0648 95.9052C86.0774 95.9458 86.0816 95.9885 86.077 96.0307C86.0172 96.7032 85.8699 97.365 85.639 97.9995C85.6073 98.0801 85.5451 98.1451 85.4659 98.1802C85.3866 98.2154 85.2968 98.218 85.2156 98.1875C85.1485 98.1765 85.0863 98.1451 85.0377 98.0974C84.9891 98.0498 84.9565 97.9883 84.9442 97.9214L85.0085 97.9403ZM84.4597 92.41C84.4496 92.3481 84.4567 92.2847 84.4803 92.2267C84.5039 92.1686 84.5431 92.1182 84.5936 92.0811C84.6633 92.0341 84.7488 92.0164 84.8314 92.032C84.9141 92.0475 84.9873 92.095 85.0353 92.1641C85.4336 92.7335 85.7301 93.3677 85.9113 94.0385C85.9229 94.0792 85.9262 94.1217 85.9212 94.1637C85.9162 94.2056 85.9029 94.2462 85.8821 94.283C85.8614 94.3198 85.8335 94.3521 85.8002 94.3781C85.7669 94.4041 85.7287 94.4232 85.6879 94.4343C85.6473 94.4473 85.6044 94.4518 85.562 94.4474C85.5195 94.4431 85.4784 94.43 85.4413 94.409C85.4041 94.3881 85.3717 94.3596 85.346 94.3256C85.3203 94.2915 85.302 94.2525 85.2921 94.211C85.1243 93.6233 84.8628 93.0665 84.5176 92.5621C84.4582 92.5211 84.415 92.4606 84.3954 92.3911L84.4597 92.41ZM89.8343 112.607L89.8201 112.528C89.8285 112.443 89.8701 112.363 89.936 112.308C90.002 112.252 90.0871 112.225 90.1731 112.231C90.8018 112.281 91.4448 112.297 92.0727 112.285C92.1154 112.284 92.1579 112.291 92.1978 112.306C92.2377 112.321 92.2742 112.344 92.305 112.374C92.3359 112.403 92.3606 112.439 92.3776 112.478C92.3946 112.517 92.4036 112.559 92.404 112.602C92.4044 112.687 92.3717 112.769 92.3127 112.831C92.2537 112.893 92.1731 112.929 92.0877 112.933C91.4401 112.948 90.7756 112.925 90.1272 112.88C90.0415 112.887 89.9561 112.861 89.8893 112.807C89.8226 112.752 89.7797 112.674 89.77 112.588L89.8343 112.607ZM93.7118 112.529C93.7054 112.486 93.7077 112.443 93.7184 112.401C93.7291 112.36 93.7481 112.321 93.7742 112.287C93.8003 112.253 93.833 112.224 93.8703 112.203C93.9076 112.182 93.9488 112.168 93.9915 112.163C94.395 112.091 94.7887 112.02 95.1922 111.947C95.4185 111.906 95.6449 111.866 95.8712 111.825C95.9124 111.816 95.9548 111.816 95.9962 111.823C96.0375 111.831 96.0769 111.847 96.1122 111.869C96.1475 111.892 96.1779 111.922 96.2017 111.957C96.2255 111.991 96.2422 112.03 96.251 112.071C96.2612 112.113 96.263 112.156 96.2561 112.199C96.2493 112.241 96.234 112.282 96.2112 112.318C96.1883 112.355 96.1584 112.386 96.1232 112.41C96.0879 112.435 96.0481 112.452 96.0061 112.461C95.7699 112.504 95.5436 112.544 95.3074 112.587C94.894 112.661 94.4807 112.736 94.0673 112.81C94.0195 112.826 93.9687 112.83 93.919 112.822C93.8693 112.815 93.8221 112.796 93.7812 112.766C93.7404 112.737 93.7069 112.699 93.6837 112.654C93.6604 112.61 93.648 112.56 93.6474 112.51L93.7118 112.529ZM97.4975 111.715C97.483 111.638 97.4973 111.558 97.5376 111.491C97.578 111.424 97.6416 111.374 97.7164 111.35C98.3124 111.162 98.9129 110.942 99.5081 110.692C99.5473 110.676 99.5892 110.668 99.6315 110.669C99.6738 110.669 99.7157 110.678 99.7545 110.694C99.7934 110.711 99.8286 110.735 99.8581 110.766C99.8876 110.796 99.9109 110.832 99.9264 110.871C99.9587 110.949 99.959 111.036 99.9274 111.114C99.8958 111.192 99.8348 111.254 99.7575 111.288C99.1426 111.541 98.5242 111.774 97.9085 111.966C97.8681 111.979 97.8255 111.984 97.7832 111.98C97.7409 111.976 97.6998 111.964 97.6622 111.945C97.6246 111.925 97.5913 111.898 97.5643 111.865C97.5372 111.833 97.5169 111.795 97.5046 111.754L97.4975 111.715ZM101.071 110.228C101.047 110.172 101.04 110.111 101.051 110.051C101.062 109.991 101.09 109.936 101.132 109.892C101.689 109.599 102.25 109.274 102.788 108.933C102.823 108.91 102.863 108.894 102.904 108.886C102.946 108.879 102.988 108.879 103.029 108.888C103.07 108.896 103.11 108.913 103.144 108.937C103.179 108.96 103.209 108.991 103.232 109.026C103.276 109.101 103.29 109.189 103.272 109.274C103.253 109.358 103.202 109.432 103.131 109.481C102.585 109.834 102.004 110.162 101.439 110.467C101.361 110.506 101.271 110.513 101.188 110.486C101.105 110.459 101.036 110.4 100.996 110.323L101.071 110.228ZM104.332 108.137C104.321 108.08 104.326 108.021 104.347 107.967C104.368 107.913 104.403 107.866 104.449 107.831C104.959 107.445 105.443 107.033 105.915 106.602C105.98 106.545 106.065 106.516 106.152 106.522C106.238 106.527 106.319 106.566 106.377 106.631C106.406 106.662 106.429 106.698 106.443 106.739C106.457 106.779 106.463 106.821 106.46 106.864C106.457 106.906 106.446 106.947 106.426 106.985C106.407 107.023 106.38 107.056 106.347 107.083C105.867 107.525 105.363 107.941 104.851 108.369C104.782 108.421 104.695 108.443 104.61 108.432C104.524 108.421 104.446 108.377 104.393 108.309L104.332 108.137ZM107.196 105.538C107.19 105.49 107.194 105.441 107.208 105.394C107.222 105.348 107.247 105.305 107.28 105.269C107.715 104.805 108.124 104.314 108.522 103.816C108.572 103.746 108.647 103.699 108.732 103.683C108.816 103.668 108.904 103.686 108.975 103.734C109.01 103.758 109.041 103.789 109.064 103.825C109.088 103.861 109.104 103.901 109.112 103.944C109.119 103.986 109.118 104.029 109.109 104.071C109.099 104.113 109.081 104.152 109.056 104.187C108.65 104.697 108.221 105.191 107.778 105.667C107.72 105.731 107.638 105.769 107.551 105.774C107.465 105.778 107.38 105.748 107.315 105.69C107.236 105.657 107.171 105.596 107.132 105.519L107.196 105.538ZM109.597 102.505C109.589 102.465 109.59 102.424 109.598 102.384C109.607 102.344 109.623 102.306 109.646 102.272C109.998 101.742 110.336 101.193 110.643 100.64C110.663 100.603 110.69 100.57 110.723 100.544C110.755 100.517 110.793 100.497 110.833 100.485C110.873 100.473 110.916 100.47 110.957 100.474C110.999 100.478 111.04 100.491 111.077 100.511C111.114 100.531 111.146 100.558 111.173 100.591C111.199 100.623 111.219 100.661 111.231 100.701C111.243 100.742 111.247 100.784 111.243 100.826C111.238 100.867 111.226 100.908 111.206 100.945C110.893 101.52 110.546 102.08 110.189 102.632C110.139 102.702 110.063 102.749 109.979 102.765C109.894 102.78 109.807 102.761 109.736 102.713C109.688 102.692 109.645 102.661 109.61 102.622C109.574 102.582 109.548 102.536 109.532 102.486L109.597 102.505ZM111.466 99.1199C111.458 99.0574 111.464 98.9937 111.484 98.9338C111.744 98.3484 111.983 97.7567 112.181 97.1622C112.194 97.1215 112.215 97.0837 112.242 97.0511C112.27 97.0186 112.304 96.9919 112.342 96.9727C112.381 96.9535 112.422 96.9422 112.465 96.9394C112.508 96.9366 112.55 96.9423 112.591 96.9563C112.672 96.9846 112.738 97.0432 112.777 97.1197C112.815 97.1962 112.822 97.2846 112.797 97.3663C112.583 97.984 112.347 98.5954 112.109 99.1871C112.092 99.2266 112.068 99.2624 112.037 99.2923C112.007 99.3223 111.97 99.3458 111.931 99.3615C111.891 99.3772 111.848 99.3847 111.806 99.3837C111.763 99.3826 111.721 99.3731 111.682 99.3554C111.609 99.3524 111.54 99.325 111.486 99.2776C111.431 99.2302 111.394 99.1657 111.381 99.0947L111.466 99.1199ZM112.706 95.4521L112.685 95.334C112.836 94.7134 112.953 94.0851 113.037 93.4518C113.052 93.3681 113.098 93.2934 113.167 93.2432C113.235 93.193 113.321 93.1712 113.405 93.1823C113.49 93.1949 113.567 93.2402 113.619 93.3087C113.671 93.3771 113.695 93.4632 113.684 93.5486C113.586 94.1862 113.469 94.8371 113.32 95.4737C113.299 95.5577 113.246 95.6303 113.173 95.6758C113.099 95.7214 113.011 95.7362 112.927 95.7172C112.852 95.7096 112.782 95.676 112.73 95.6223C112.677 95.5686 112.646 95.4982 112.64 95.4234L112.706 95.4521Z" fill="#999999"/>
</svg>
