<svg width="6" height="5" viewBox="0 0 6 5" fill="none" xmlns="http://www.w3.org/2000/svg">
<path d="M3.3659 1.72693C2.56923 2.68309 1.90041 3.48314 1.89058 3.50266C1.87091 3.52217 1.61519 3.32703 1.31029 3.08312C1.00539 2.8392 0.690653 2.63431 0.621804 2.63431C0.543121 2.63431 0.366082 2.73187 0.21855 2.85871C-0.184704 3.2002 -0.0568427 3.48314 0.828349 4.18563C1.55617 4.77103 1.86107 4.87836 2.284 4.72225C2.55939 4.61492 5.68707 0.819552 5.68707 0.58539C5.68707 0.19512 5.51003 -1.43051e-05 5.15595 -1.43051e-05C4.84122 -1.43051e-05 4.72319 0.117066 3.3659 1.72693Z" fill="#FA7436"/>
</svg>
