<svg width="6" height="5" viewBox="0 0 6 5" fill="none" xmlns="http://www.w3.org/2000/svg">
<path d="M3.46733 1.62934C2.71983 2.52696 2.05102 3.32702 1.99201 3.40507C1.89366 3.53191 1.81497 3.50264 1.45106 3.20993C0.713399 2.61477 0.428171 2.56599 0.0937648 2.96602C-0.142286 3.24896 0.0544229 3.59045 0.831425 4.19537C1.70678 4.88809 2.06086 4.95639 2.53296 4.50758C2.70016 4.36123 3.46733 3.47337 4.25417 2.53672C5.73932 0.770749 5.88686 0.497561 5.53278 0.156075C5.45409 0.0682635 5.25739 -3.33786e-05 5.10985 -3.33786e-05C4.8738 -3.33786e-05 4.63775 0.234128 3.46733 1.62934Z" fill="#FA7436"/>
</svg>
