<svg width="5" height="5" viewBox="0 0 5 5" fill="none" xmlns="http://www.w3.org/2000/svg">
<path d="M1.82378 0.0389419C-0.369528 0.448725 -0.674427 3.43429 1.40086 4.30264C1.94181 4.52704 2.95486 4.42948 3.45647 4.09775C4.08594 3.67821 4.39084 3.15134 4.43018 2.36105C4.45969 1.82443 4.43018 1.60978 4.25314 1.25853C3.81054 0.341401 2.827 -0.146436 1.82378 0.0389419ZM3.05321 1.54148C3.38762 1.93175 3.35811 2.59521 2.98437 2.96596C2.74831 3.19037 2.61062 3.24891 2.25654 3.24891C1.50905 3.24891 1.01727 2.64399 1.21398 1.94151C1.45003 1.12194 2.48276 0.897535 3.05321 1.54148Z" fill="#FA7436"/>
</svg>
