<svg width="90" height="110" viewBox="0 0 90 110" fill="none" xmlns="http://www.w3.org/2000/svg">
<path d="M76.6652 109.54C76.7194 109.541 76.7728 109.527 76.8202 109.501C76.8676 109.475 76.9072 109.436 76.9352 109.39C77.2952 108.843 77.6285 108.293 77.9352 107.74C77.9806 107.667 77.9955 107.579 77.9768 107.495C77.9581 107.411 77.9073 107.337 77.8352 107.29C77.7607 107.246 77.6718 107.232 77.5876 107.253C77.5034 107.273 77.4307 107.326 77.3852 107.4C77.0452 107.95 76.7052 108.49 76.3852 109.04C76.3609 109.075 76.344 109.115 76.3354 109.157C76.3268 109.199 76.3267 109.242 76.3351 109.284C76.3435 109.326 76.3602 109.366 76.3843 109.401C76.4084 109.437 76.4393 109.467 76.4752 109.49C76.5335 109.522 76.5987 109.539 76.6652 109.54ZM78.6652 106.22C78.7216 106.22 78.7771 106.205 78.8261 106.177C78.8751 106.149 78.9161 106.108 78.9452 106.06C79.2652 105.49 79.5852 104.92 79.9452 104.35C79.9856 104.275 79.9958 104.188 79.9734 104.106C79.9511 104.024 79.898 103.954 79.8252 103.91C79.7493 103.87 79.661 103.862 79.5789 103.886C79.4968 103.91 79.4273 103.965 79.3852 104.04C79.0752 104.61 78.7552 105.17 78.4352 105.73C78.3908 105.804 78.3774 105.893 78.398 105.978C78.4186 106.062 78.4714 106.134 78.5452 106.18C78.5972 106.208 78.6559 106.222 78.7152 106.22H78.6652ZM80.5252 102.8C80.5853 102.799 80.6442 102.782 80.6953 102.75C80.7464 102.719 80.7879 102.674 80.8152 102.62C81.1152 102.04 81.4052 101.45 81.6852 100.87C81.7039 100.832 81.7148 100.791 81.7173 100.748C81.7199 100.706 81.714 100.664 81.7 100.624C81.6861 100.584 81.6643 100.547 81.636 100.515C81.6077 100.484 81.5735 100.458 81.5352 100.44C81.4971 100.421 81.4558 100.41 81.4135 100.408C81.3712 100.405 81.3288 100.411 81.2888 100.425C81.2488 100.439 81.212 100.461 81.1805 100.489C81.149 100.517 81.1234 100.552 81.1052 100.59C80.8252 101.17 80.5352 101.75 80.2352 102.33C80.2165 102.368 80.2056 102.409 80.203 102.452C80.2005 102.494 80.2063 102.536 80.2203 102.576C80.2343 102.616 80.256 102.653 80.2843 102.685C80.3126 102.716 80.3469 102.742 80.3852 102.76C80.412 102.78 80.4429 102.794 80.4757 102.801C80.5086 102.808 80.5425 102.808 80.5752 102.8H80.5252ZM82.2152 99.28C82.2778 99.2791 82.339 99.2608 82.3919 99.2273C82.4449 99.1937 82.4875 99.1462 82.5152 99.09L83.2952 97.3C83.3282 97.2191 83.3278 97.1284 83.2941 97.0478C83.2603 96.9672 83.196 96.9032 83.1152 96.87C83.0355 96.84 82.9473 96.842 82.869 96.8755C82.7907 96.9091 82.7284 96.9716 82.6952 97.05C82.4452 97.64 82.1852 98.23 81.9252 98.83C81.907 98.8679 81.8967 98.9091 81.895 98.9511C81.8932 98.9931 81.9001 99.0351 81.9151 99.0743C81.93 99.1136 81.9528 99.1495 81.9821 99.1797C82.0113 99.2099 82.0464 99.2338 82.0852 99.25C82.1408 99.2778 82.2035 99.2883 82.2652 99.28H82.2152ZM83.7252 95.69C83.7892 95.6894 83.8517 95.6701 83.9049 95.6346C83.9582 95.5991 84 95.5489 84.0252 95.49C84.2652 94.87 84.4952 94.26 84.7252 93.65C84.7393 93.61 84.7454 93.5675 84.7429 93.5251C84.7405 93.4827 84.7297 93.4413 84.7111 93.4031C84.6925 93.3649 84.6665 93.3309 84.6345 93.3029C84.6026 93.2749 84.5654 93.2535 84.5252 93.24C84.4455 93.2136 84.3587 93.2185 84.2826 93.2538C84.2064 93.2891 84.1465 93.3521 84.1152 93.43C83.8952 94.04 83.6652 94.64 83.4252 95.25C83.3952 95.3297 83.3972 95.4179 83.4308 95.4962C83.4643 95.5745 83.5268 95.6367 83.6052 95.67L83.7252 95.69ZM85.0652 92.03C85.1319 92.0292 85.1967 92.0075 85.2505 91.9681C85.3042 91.9286 85.3444 91.8734 85.3652 91.81C85.5852 91.19 85.7852 90.57 85.9752 89.95C86.0005 89.8678 85.9928 89.7789 85.9536 89.7023C85.9144 89.6257 85.8467 89.5675 85.7652 89.54C85.6829 89.5146 85.5941 89.5224 85.5175 89.5616C85.4409 89.6009 85.3827 89.6684 85.3552 89.75C85.1652 90.37 84.9652 90.98 84.7552 91.6C84.7299 91.6822 84.7376 91.7711 84.7768 91.8477C84.8161 91.9243 84.8836 91.9825 84.9652 92.01L85.0652 92.03ZM86.2252 88.31C86.2957 88.3084 86.3639 88.2842 86.4197 88.241C86.4755 88.1978 86.516 88.1379 86.5352 88.07C86.7152 87.44 86.8952 86.81 87.0552 86.19C87.0767 86.1065 87.0647 86.0179 87.0217 85.9431C86.9787 85.8684 86.9082 85.8134 86.8252 85.79C86.7845 85.7795 86.7421 85.7771 86.7005 85.7829C86.6588 85.7888 86.6188 85.8028 86.5825 85.8242C86.5463 85.8455 86.5146 85.8738 86.4893 85.9074C86.4641 85.941 86.4457 85.9793 86.4352 86.02C86.2652 86.64 86.0952 87.27 85.9152 87.89C85.903 87.9307 85.899 87.9734 85.9035 88.0157C85.908 88.0579 85.9208 88.0989 85.9413 88.1361C85.9618 88.1734 85.9895 88.2062 86.0228 88.2326C86.0561 88.259 86.0942 88.2785 86.1352 88.29L86.2252 88.31ZM87.2252 84.54C87.297 84.5378 87.3662 84.5122 87.4221 84.467C87.4781 84.4219 87.5178 84.3597 87.5352 84.29C87.6852 83.65 87.8352 83.01 87.9652 82.38C87.9755 82.3392 87.9774 82.2968 87.9708 82.2553C87.9642 82.2138 87.9492 82.174 87.9267 82.1385C87.9043 82.1029 87.8748 82.0723 87.8402 82.0485C87.8055 82.0247 87.7664 82.0082 87.7252 82C87.6838 81.9896 87.6408 81.9876 87.5986 81.9941C87.5564 82.0006 87.516 82.0155 87.4796 82.0379C87.4433 82.0602 87.4118 82.0896 87.387 82.1243C87.3622 82.1591 87.3446 82.1984 87.3352 82.24C87.2052 82.87 87.0552 83.5 86.9052 84.14C86.8869 84.2234 86.9018 84.3107 86.9466 84.3834C86.9913 84.4561 87.0625 84.5087 87.1452 84.53L87.2252 84.54ZM88.0452 80.72C88.1206 80.7213 88.1941 80.696 88.2527 80.6484C88.3112 80.6008 88.3511 80.5341 88.3652 80.46C88.4852 79.82 88.6052 79.18 88.7152 78.54C88.7297 78.4565 88.7105 78.3706 88.6617 78.3012C88.613 78.2318 88.5387 78.1846 88.4552 78.17C88.4131 78.1613 88.3697 78.1612 88.3275 78.1697C88.2854 78.1782 88.2455 78.1951 88.21 78.2193C88.1745 78.2436 88.1443 78.2748 88.1212 78.311C88.098 78.3472 88.0823 78.3876 88.0752 78.43C87.9652 79.06 87.8552 79.7 87.7252 80.34C87.7165 80.3821 87.7164 80.4255 87.7249 80.4676C87.7334 80.5098 87.7502 80.5497 87.7745 80.5852C87.7988 80.6207 87.8299 80.6509 87.8661 80.674C87.9023 80.6972 87.9428 80.7128 87.9852 80.72H88.0452ZM88.7052 76.88C88.7826 76.8831 88.8584 76.8572 88.9176 76.8072C88.9769 76.7572 89.0152 76.6869 89.0252 76.61C89.1252 75.96 89.2152 75.31 89.2952 74.67C89.3008 74.6279 89.2979 74.5852 89.2868 74.5442C89.2757 74.5032 89.2566 74.4649 89.2306 74.4314C89.2045 74.3979 89.1721 74.3699 89.1351 74.349C89.0981 74.3282 89.0573 74.3149 89.0152 74.31C88.9729 74.3029 88.9296 74.3047 88.8881 74.3152C88.8465 74.3257 88.8076 74.3447 88.7738 74.3711C88.7399 74.3974 88.712 74.4304 88.6916 74.4681C88.6711 74.5058 88.6587 74.5473 88.6552 74.59C88.5752 75.2167 88.4852 75.8567 88.3852 76.51C88.3735 76.5946 88.3952 76.6805 88.4455 76.7495C88.4959 76.8185 88.571 76.8653 88.6552 76.88H88.7052ZM89.1952 73.01C89.2757 73.0128 89.3542 72.984 89.414 72.9299C89.4737 72.8757 89.51 72.8005 89.5152 72.72C89.5852 72.07 89.6552 71.42 89.7052 70.78C89.7107 70.694 89.6825 70.6093 89.6264 70.5439C89.5704 70.4785 89.491 70.4376 89.4052 70.43C89.3634 70.4244 89.3209 70.4276 89.2804 70.4395C89.24 70.4514 89.2025 70.4717 89.1704 70.4991C89.1384 70.5264 89.1124 70.5602 89.0943 70.5983C89.0761 70.6364 89.0662 70.6778 89.0652 70.72C89.0052 71.36 88.9452 72.01 88.8752 72.66C88.8711 72.7021 88.8753 72.7445 88.8877 72.7849C88.9 72.8253 88.9203 72.8629 88.9472 72.8954C88.9742 72.928 89.0074 72.9549 89.0448 72.9745C89.0822 72.9942 89.1231 73.0062 89.1652 73.01H89.1952ZM89.5252 69.13C89.6067 69.1302 89.6852 69.0992 89.7447 69.0435C89.8041 68.9877 89.8401 68.9114 89.8452 68.83C89.8452 68.16 89.9252 67.51 89.9452 66.83C89.9479 66.7872 89.9419 66.7442 89.9277 66.7037C89.9135 66.6632 89.8912 66.626 89.8623 66.5943C89.8333 66.5625 89.7983 66.537 89.7593 66.519C89.7203 66.5011 89.6781 66.4913 89.6352 66.49C89.5512 66.4939 89.4713 66.527 89.4092 66.5836C89.3471 66.6402 89.3068 66.7168 89.2952 66.8C89.2952 67.44 89.2952 68.09 89.2052 68.74C89.1996 68.826 89.2279 68.9107 89.284 68.9761C89.34 69.0415 89.4194 69.0823 89.5052 69.09L89.5252 69.13ZM89.6752 65.23C89.7601 65.23 89.8414 65.1963 89.9015 65.1363C89.9615 65.0763 89.9952 64.9949 89.9952 64.91C89.9952 64.45 89.9952 64 89.9952 63.55V62.96C89.9952 62.8751 89.9615 62.7937 89.9015 62.7337C89.8414 62.6737 89.7601 62.64 89.6752 62.64C89.5903 62.64 89.509 62.6737 89.4489 62.7337C89.3889 62.7937 89.3552 62.8751 89.3552 62.96V63.55C89.3552 64 89.3552 64.45 89.3552 64.9C89.3539 64.9428 89.3611 64.9855 89.3766 65.0255C89.3921 65.0655 89.4154 65.102 89.4453 65.1328C89.4751 65.1636 89.5109 65.188 89.5504 65.2047C89.5899 65.2214 89.6323 65.23 89.6752 65.23ZM89.6752 61.33C89.7181 61.33 89.7605 61.3214 89.8 61.3047C89.8395 61.288 89.8752 61.2636 89.9051 61.2328C89.9349 61.202 89.9583 61.1655 89.9738 61.1255C89.9893 61.0855 89.9965 61.0429 89.9952 61C89.9952 60.33 89.9352 59.68 89.9052 59C89.8975 58.9142 89.8566 58.8348 89.7912 58.7788C89.7258 58.7227 89.6412 58.6944 89.5552 58.7C89.5132 58.7025 89.472 58.7134 89.4342 58.7319C89.3963 58.7503 89.3624 58.7761 89.3346 58.8077C89.3067 58.8393 89.2853 58.8761 89.2717 58.9159C89.2581 58.9558 89.2525 58.998 89.2552 59.04C89.2552 59.67 89.3252 60.32 89.3452 60.98C89.3405 61.0271 89.3463 61.0747 89.3623 61.1193C89.3782 61.1639 89.4039 61.2044 89.4373 61.2378C89.4708 61.2713 89.5113 61.2969 89.5559 61.3129C89.6005 61.3288 89.648 61.3347 89.6952 61.33H89.6752ZM89.4452 57.44C89.4872 57.4362 89.5282 57.4242 89.5656 57.4045C89.603 57.3848 89.6362 57.358 89.6631 57.3254C89.6901 57.2929 89.7103 57.2553 89.7227 57.2149C89.7351 57.1745 89.7393 57.1321 89.7352 57.09C89.6752 56.4233 89.6052 55.7567 89.5252 55.09C89.5216 55.0473 89.5093 55.0058 89.4889 54.9681C89.4684 54.9304 89.4404 54.8974 89.4066 54.8711C89.3728 54.8447 89.3338 54.8257 89.2923 54.8152C89.2507 54.8047 89.2075 54.8029 89.1652 54.81C89.0812 54.8224 89.0051 54.8668 88.953 54.9339C88.9008 55.0009 88.8765 55.0855 88.8852 55.17C88.9652 55.78 89.0352 56.43 89.0952 57.1C89.0912 57.1492 89.0987 57.1987 89.117 57.2446C89.1353 57.2904 89.164 57.3314 89.2008 57.3643C89.2376 57.3973 89.2815 57.4212 89.3291 57.4344C89.3767 57.4475 89.4267 57.4494 89.4752 57.44H89.4452ZM88.9652 53.57C89.0487 53.5554 89.123 53.5082 89.1717 53.4388C89.2205 53.3694 89.2397 53.2835 89.2252 53.2L89.1652 52.81C89.0752 52.3 88.9752 51.81 88.8752 51.27C88.8669 51.2285 88.8503 51.1891 88.8267 51.1541C88.803 51.119 88.7727 51.089 88.7373 51.0657C88.702 51.0425 88.6624 51.0265 88.6208 51.0186C88.5793 51.0108 88.5366 51.0112 88.4952 51.02C88.4531 51.027 88.4128 51.0427 88.377 51.066C88.3412 51.0893 88.3107 51.1197 88.2872 51.1554C88.2637 51.1911 88.2479 51.2312 88.2406 51.2733C88.2334 51.3154 88.235 51.3585 88.2452 51.4C88.3452 51.91 88.4352 52.4 88.5252 52.92L88.5952 53.3C88.5994 53.345 88.6135 53.3885 88.6363 53.4275C88.6591 53.4665 88.6902 53.5 88.7274 53.5258C88.7645 53.5515 88.8069 53.5688 88.8514 53.5764C88.8959 53.584 88.9416 53.5819 88.9852 53.57H88.9652ZM88.1952 49.75H88.2652C88.3064 49.7418 88.3456 49.7253 88.3802 49.7015C88.4149 49.6777 88.4443 49.6471 88.4668 49.6115C88.4892 49.576 88.5042 49.5362 88.5108 49.4947C88.5174 49.4532 88.5155 49.4108 88.5052 49.37C88.3552 48.73 88.2052 48.1 88.0352 47.46C88.0237 47.4191 88.0042 47.3809 87.9777 47.3476C87.9513 47.3143 87.9185 47.2866 87.8813 47.2661C87.8441 47.2456 87.8031 47.2328 87.7609 47.2283C87.7186 47.2238 87.6759 47.2278 87.6352 47.24C87.5944 47.2505 87.5562 47.2689 87.5226 47.2942C87.489 47.3195 87.4607 47.3511 87.4394 47.3873C87.418 47.4235 87.404 47.4636 87.3981 47.5053C87.3922 47.5469 87.3947 47.5893 87.4052 47.63C87.5752 48.26 87.7352 48.88 87.8752 49.51C87.8957 49.583 87.9407 49.6466 88.0026 49.6904C88.0645 49.7341 88.1396 49.7551 88.2152 49.75H88.1952ZM87.1952 45.99H87.2852C87.3261 45.9785 87.3643 45.959 87.3976 45.9326C87.4309 45.9062 87.4586 45.8734 87.479 45.8361C87.4995 45.7989 87.5124 45.758 87.5169 45.7157C87.5214 45.6734 87.5174 45.6307 87.5052 45.59C87.3152 44.96 87.1152 44.34 86.9052 43.72C86.8917 43.6797 86.8703 43.6426 86.8423 43.6107C86.8143 43.5788 86.7803 43.5527 86.7421 43.5341C86.7039 43.5155 86.6624 43.5047 86.62 43.5022C86.5776 43.4998 86.5352 43.5059 86.4952 43.52C86.455 43.5335 86.4177 43.5549 86.3858 43.5829C86.3539 43.6109 86.3279 43.6449 86.3093 43.6831C86.2907 43.7213 86.2799 43.7627 86.2774 43.8051C86.275 43.8475 86.281 43.89 86.2952 43.93C86.5052 44.54 86.6952 45.16 86.8852 45.78C86.9087 45.8448 86.9527 45.9003 87.0103 45.9381C87.068 45.976 87.1363 45.9942 87.2052 45.99H87.1952ZM85.9452 42.29C85.9812 42.2993 86.0191 42.2993 86.0552 42.29C86.1347 42.2607 86.1993 42.2011 86.235 42.1243C86.2706 42.0474 86.2742 41.9596 86.2452 41.88C86.0152 41.27 85.7752 40.66 85.5152 40.06C85.4997 40.0203 85.4766 39.9842 85.447 39.9536C85.4175 39.923 85.3821 39.8986 85.343 39.8818C85.3039 39.865 85.2618 39.8563 85.2193 39.8559C85.1767 39.8556 85.1345 39.8638 85.0952 39.88C85.0564 39.8964 85.0213 39.9202 84.9917 39.9502C84.9622 39.9802 84.9389 40.0157 84.9231 40.0547C84.9073 40.0937 84.8993 40.1355 84.8997 40.1776C84.9001 40.2197 84.9087 40.2613 84.9252 40.3C85.1752 40.9 85.4152 41.5 85.6352 42.11C85.6647 42.1683 85.7109 42.2166 85.7678 42.2486C85.8248 42.2807 85.89 42.2951 85.9552 42.29H85.9452ZM84.4752 38.75C84.5214 38.7594 84.569 38.7594 84.6152 38.75C84.6924 38.7131 84.7523 38.6476 84.7821 38.5674C84.812 38.4871 84.8095 38.3984 84.7752 38.32C84.4952 37.73 84.2152 37.14 83.9152 36.55C83.8748 36.4763 83.8078 36.4208 83.7279 36.3948C83.648 36.3688 83.5612 36.3742 83.4852 36.41C83.4072 36.4487 83.3476 36.5167 83.3195 36.5991C83.2914 36.6815 83.2971 36.7717 83.3352 36.85C83.6352 37.42 83.9152 38 84.1852 38.59C84.2135 38.6414 84.2557 38.6837 84.307 38.712C84.3584 38.7403 84.4167 38.7535 84.4752 38.75ZM82.7152 35.27C82.7642 35.2836 82.8161 35.2836 82.8652 35.27C82.9031 35.2501 82.9365 35.2228 82.9636 35.1897C82.9908 35.1567 83.011 35.1185 83.0231 35.0775C83.0352 35.0364 83.039 34.9934 83.0342 34.9509C83.0294 34.9084 83.0162 34.8673 82.9952 34.83C82.6752 34.26 82.3452 33.69 81.9952 33.14C81.9746 33.1028 81.9465 33.0702 81.9128 33.0443C81.8791 33.0183 81.8404 32.9996 81.7991 32.9893C81.7578 32.979 81.7149 32.9773 81.6729 32.9843C81.631 32.9913 81.5909 33.0068 81.5552 33.03C81.519 33.0516 81.4874 33.0801 81.4623 33.114C81.4372 33.1478 81.419 33.1863 81.4088 33.2271C81.3986 33.268 81.3965 33.3105 81.4027 33.3522C81.409 33.3939 81.4234 33.4339 81.4452 33.47C81.7852 34.02 82.1052 34.58 82.4452 35.15C82.4781 35.1777 82.5165 35.1982 82.5578 35.2103C82.5991 35.2223 82.6425 35.2256 82.6852 35.22L82.7152 35.27ZM80.7152 31.94C80.7739 31.9578 80.8365 31.9578 80.8952 31.94C80.9311 31.9168 80.9621 31.8866 80.9861 31.8512C81.0102 31.8158 81.0269 31.776 81.0352 31.734C81.0436 31.6921 81.0435 31.6488 81.0349 31.6069C81.0263 31.565 81.0094 31.5253 80.9852 31.49C80.6152 30.95 80.2452 30.41 79.8552 29.88C79.8035 29.8128 79.728 29.768 79.6442 29.7549C79.5604 29.7419 79.4748 29.7616 79.4052 29.81C79.3379 29.8616 79.2931 29.9372 79.2801 30.021C79.2671 30.1048 79.2868 30.1904 79.3352 30.26C79.7152 30.78 80.0852 31.31 80.4452 31.85C80.5085 31.887 80.5827 31.9011 80.6552 31.89L80.7152 31.94ZM36.7152 29.73H37.1252C37.1673 29.7274 37.2084 29.7166 37.2462 29.6982C37.2841 29.6797 37.3179 29.6539 37.3458 29.6223C37.3737 29.5907 37.395 29.5539 37.4087 29.5141C37.4223 29.4742 37.4279 29.432 37.4252 29.39C37.424 29.3475 37.4141 29.3057 37.3961 29.2672C37.3781 29.2286 37.3523 29.1942 37.3204 29.1661C37.2885 29.1379 37.2512 29.1167 37.2107 29.1036C37.1703 29.0905 37.1275 29.0859 37.0852 29.09C36.7026 29.1251 36.3177 29.1251 35.9352 29.09C35.706 29.0612 35.4789 29.0178 35.2552 28.96C35.1717 28.9385 35.0831 28.9505 35.0083 28.9935C34.9336 29.0365 34.8786 29.107 34.8552 29.19C34.8448 29.2314 34.8428 29.2744 34.8493 29.3166C34.8558 29.3588 34.8707 29.3992 34.893 29.4355C34.9154 29.4719 34.9448 29.5034 34.9795 29.5282C35.0142 29.553 35.0536 29.5706 35.0952 29.58C35.3475 29.6501 35.605 29.7002 35.8652 29.73C36.1125 29.7251 36.3595 29.7084 36.6052 29.68L36.7152 29.73ZM39.0152 29.34H39.1152C39.7648 29.1118 40.3703 28.7736 40.9052 28.34C40.965 28.2784 40.9986 28.1959 40.9986 28.11C40.9986 28.0241 40.965 27.9416 40.9052 27.88C40.8753 27.8492 40.8396 27.8246 40.8001 27.8079C40.7606 27.7911 40.7181 27.7825 40.6752 27.7825C40.6323 27.7825 40.5898 27.7911 40.5503 27.8079C40.5107 27.8246 40.475 27.8492 40.4452 27.88C39.9674 28.2616 39.4303 28.5623 38.8552 28.77C38.8149 28.7835 38.7778 28.8049 38.7459 28.8329C38.714 28.8609 38.6879 28.8949 38.6693 28.9331C38.6507 28.9713 38.6398 29.0127 38.6374 29.0551C38.635 29.0975 38.641 29.14 38.6552 29.18C38.6866 29.2151 38.7252 29.2431 38.7683 29.2621C38.8114 29.2811 38.8581 29.2906 38.9052 29.29L39.0152 29.34ZM78.4652 28.8C78.538 28.8009 78.6088 28.7761 78.6652 28.73C78.7251 28.6684 78.7586 28.5859 78.7586 28.5C78.7586 28.4141 78.7251 28.3316 78.6652 28.27C78.2552 27.76 77.8252 27.27 77.4052 26.77C77.3436 26.7101 77.2611 26.6766 77.1752 26.6766C77.0893 26.6766 77.0068 26.7101 76.9452 26.77C76.8853 26.8316 76.8518 26.9141 76.8518 27C76.8518 27.0859 76.8853 27.1684 76.9452 27.23C77.3652 27.71 77.7852 28.23 78.1852 28.71C78.2374 28.7379 78.296 28.7517 78.3552 28.75L78.4652 28.8ZM33.4052 28.75C33.4578 28.7485 33.5094 28.7351 33.5562 28.7109C33.6029 28.6866 33.6436 28.6521 33.6752 28.61C33.7206 28.5368 33.7354 28.4487 33.7168 28.3646C33.6981 28.2806 33.6473 28.2071 33.5752 28.16C33.0593 27.8174 32.5919 27.407 32.1852 26.94C32.1253 26.8808 32.0444 26.8475 31.9602 26.8475C31.8759 26.8475 31.7951 26.8808 31.7352 26.94C31.6753 27.0016 31.6418 27.0841 31.6418 27.17C31.6418 27.2559 31.6753 27.3384 31.7352 27.4C32.1787 27.9173 32.6939 28.3685 33.2652 28.74C33.275 28.7439 33.285 28.7473 33.2952 28.75H33.4052ZM41.9352 26.9C41.9926 26.8985 42.0486 26.882 42.0977 26.8522C42.1469 26.8224 42.1873 26.7803 42.2152 26.73C42.5454 26.1073 42.7589 25.4295 42.8452 24.73C42.8508 24.6879 42.848 24.6452 42.8369 24.6042C42.8258 24.5632 42.8066 24.5249 42.7805 24.4914C42.7545 24.4579 42.7221 24.4299 42.6851 24.4091C42.6481 24.3882 42.6074 24.3749 42.5652 24.37C42.4817 24.3585 42.3971 24.3805 42.3297 24.431C42.2623 24.4816 42.2175 24.5567 42.2052 24.64C42.1223 25.2471 41.9363 25.8356 41.6552 26.38C41.6342 26.4173 41.621 26.4584 41.6162 26.5009C41.6114 26.5434 41.6152 26.5864 41.6273 26.6275C41.6394 26.6685 41.6596 26.7066 41.6867 26.7397C41.7139 26.7728 41.7473 26.8001 41.7852 26.82C41.7979 26.8308 41.8112 26.8408 41.8252 26.85L41.9352 26.9ZM75.8852 25.9C75.9706 25.9009 76.0531 25.8686 76.1152 25.81C76.1751 25.7484 76.2085 25.6659 76.2085 25.58C76.2085 25.4941 76.1751 25.4116 76.1152 25.35C75.6552 24.88 75.1852 24.42 74.7152 23.97C74.6536 23.9101 74.5711 23.8766 74.4852 23.8766C74.3993 23.8766 74.3168 23.9101 74.2552 23.97C74.196 24.0299 74.1627 24.1108 74.1627 24.195C74.1627 24.2793 74.196 24.3601 74.2552 24.42C74.7152 24.86 75.1752 25.32 75.6252 25.78C75.6708 25.8063 75.7225 25.8201 75.7752 25.82L75.8852 25.9ZM30.8852 25.9C30.9347 25.9095 30.9856 25.9095 31.0352 25.9C31.1096 25.8577 31.1654 25.789 31.1913 25.7074C31.2173 25.6259 31.2115 25.5375 31.1752 25.46C30.8936 24.9035 30.6884 24.3115 30.5652 23.7C30.5558 23.6584 30.5382 23.6191 30.5134 23.5844C30.4886 23.5496 30.4571 23.5202 30.4207 23.4979C30.3844 23.4755 30.344 23.4606 30.3018 23.4541C30.2596 23.4476 30.2166 23.4496 30.1752 23.46C30.1337 23.4683 30.0943 23.4848 30.0592 23.5085C30.0242 23.5321 29.9942 23.5625 29.9709 23.5978C29.9477 23.6332 29.9316 23.6728 29.9238 23.7144C29.9159 23.7559 29.9164 23.7986 29.9252 23.84C30.0703 24.5015 30.2952 25.1429 30.5952 25.75C30.6433 25.7802 30.6985 25.7974 30.7552 25.8L30.8852 25.9ZM73.0752 23.25C73.1207 23.2498 73.1657 23.2399 73.2071 23.2209C73.2484 23.2019 73.2853 23.1744 73.3152 23.14C73.3751 23.0784 73.4085 22.9959 73.4085 22.91C73.4085 22.8241 73.3751 22.7416 73.3152 22.68L72.7152 22.18L71.7852 21.45C71.716 21.3975 71.629 21.3743 71.5429 21.3855C71.4568 21.3968 71.3785 21.4415 71.3252 21.51C71.2757 21.5784 71.2544 21.6632 71.2655 21.7469C71.2767 21.8307 71.3195 21.9069 71.3852 21.96L72.3052 22.68L72.8952 23.18C72.9127 23.1716 72.9295 23.1615 72.9452 23.15L73.0752 23.25ZM42.5552 23.16C42.6411 23.1499 42.7195 23.1066 42.7738 23.0393C42.828 22.972 42.8536 22.886 42.8452 22.8C42.7688 22.1215 42.6282 21.4519 42.4252 20.8C42.4137 20.7591 42.3942 20.7209 42.3678 20.6876C42.3413 20.6543 42.3086 20.6266 42.2713 20.6061C42.2341 20.5857 42.1932 20.5728 42.1509 20.5683C42.1086 20.5638 42.0659 20.5678 42.0252 20.58C41.9844 20.5913 41.9464 20.6109 41.9134 20.6375C41.8805 20.6641 41.8534 20.6971 41.8337 20.7346C41.814 20.7721 41.8022 20.8132 41.799 20.8554C41.7959 20.8976 41.8014 20.94 41.8152 20.98C41.9964 21.5848 42.1268 22.2035 42.2052 22.83C42.2186 22.8842 42.246 22.934 42.2846 22.9743C42.3232 23.0147 42.3716 23.0442 42.4252 23.06L42.5552 23.16ZM30.1052 22.16C30.1867 22.1602 30.2652 22.1292 30.3247 22.0735C30.3841 22.0177 30.4201 21.9413 30.4252 21.86C30.4713 21.2451 30.613 20.6412 30.8452 20.07C30.8616 20.0313 30.8703 19.9897 30.8707 19.9476C30.8711 19.9055 30.8631 19.8638 30.8473 19.8247C30.8315 19.7857 30.8082 19.7502 30.7787 19.7202C30.7491 19.6902 30.714 19.6664 30.6752 19.65C30.6365 19.6335 30.5948 19.6249 30.5528 19.6245C30.5107 19.6241 30.4689 19.6321 30.4299 19.6479C30.3909 19.6636 30.3554 19.687 30.3254 19.7165C30.2954 19.7461 30.2716 19.7812 30.2552 19.82C29.9902 20.4565 29.8314 21.1321 29.7852 21.82C29.7811 21.8628 29.7856 21.9061 29.7986 21.9471C29.8116 21.9881 29.8327 22.0261 29.8607 22.0588C29.8888 22.0915 29.9231 22.1182 29.9616 22.1373C30.0002 22.1564 30.0422 22.1675 30.0852 22.17L30.1052 22.16ZM69.8452 20.75C69.8983 20.7509 69.9508 20.7386 69.9979 20.7141C70.045 20.6897 70.0853 20.6539 70.1152 20.61C70.1625 20.5392 70.1806 20.4528 70.1657 20.3689C70.1508 20.285 70.104 20.2102 70.0352 20.16C69.4952 19.79 68.9352 19.43 68.3852 19.09C68.3107 19.0456 68.2219 19.0322 68.1377 19.0528C68.0535 19.0733 67.9807 19.1263 67.9352 19.2C67.9134 19.2361 67.899 19.2761 67.8928 19.3178C67.8865 19.3595 67.8885 19.402 67.8988 19.4428C67.909 19.4837 67.9272 19.5222 67.9523 19.556C67.9774 19.5899 68.009 19.6184 68.0452 19.64C68.5919 19.98 69.1319 20.33 69.6652 20.69C69.7177 20.7277 69.7805 20.7487 69.8452 20.75ZM41.3452 19.3C41.3879 19.3102 41.4325 19.3102 41.4752 19.3C41.5542 19.2649 41.6163 19.2002 41.6481 19.1198C41.6799 19.0393 41.6788 18.9496 41.6452 18.87C41.3952 18.3 41.1052 17.7 40.7752 17.1C40.7553 17.0622 40.728 17.0287 40.6949 17.0015C40.6618 16.9744 40.6237 16.9542 40.5827 16.9421C40.5416 16.93 40.4986 16.9262 40.4561 16.931C40.4136 16.9358 40.3725 16.949 40.3352 16.97C40.2607 17.0122 40.2055 17.0816 40.1812 17.1637C40.157 17.2458 40.1655 17.3341 40.2052 17.41C40.5252 17.99 40.8152 18.57 41.0552 19.13C41.0787 19.1881 41.1186 19.2379 41.1702 19.2735C41.2217 19.309 41.2826 19.3287 41.3452 19.33V19.3ZM66.4752 18.75C66.5345 18.7514 66.5931 18.7362 66.6443 18.7061C66.6955 18.6761 66.7374 18.6324 66.7652 18.58C66.8048 18.5041 66.8134 18.4158 66.7892 18.3337C66.7649 18.2516 66.7097 18.1822 66.6352 18.14C66.0652 17.83 65.4752 17.53 64.8852 17.24C64.8471 17.2213 64.8058 17.2104 64.7635 17.2079C64.7212 17.2053 64.6788 17.2112 64.6388 17.2252C64.5988 17.2391 64.562 17.2609 64.5305 17.2892C64.499 17.3175 64.4733 17.3517 64.4552 17.39C64.4365 17.428 64.4256 17.4694 64.4231 17.5117C64.4205 17.554 64.4264 17.5964 64.4403 17.6364C64.4543 17.6764 64.4761 17.7132 64.5044 17.7447C64.5327 17.7762 64.5669 17.8018 64.6052 17.82C65.1852 18.1 65.7652 18.4 66.3252 18.71C66.3704 18.7372 66.4224 18.7511 66.4752 18.75ZM31.3952 18.5C31.4431 18.4993 31.4902 18.4883 31.5334 18.4675C31.5766 18.4468 31.6147 18.4169 31.6452 18.38C32.0495 17.907 32.5057 17.481 33.0052 17.11C33.0407 17.0861 33.0709 17.0552 33.0938 17.0191C33.1168 16.983 33.1321 16.9426 33.1386 16.9003C33.1452 16.8581 33.143 16.8149 33.132 16.7735C33.1211 16.7322 33.1017 16.6935 33.0752 16.66C33.0513 16.6245 33.0204 16.5943 32.9843 16.5714C32.9482 16.5484 32.9078 16.5331 32.8655 16.5266C32.8232 16.52 32.7801 16.5222 32.7387 16.5331C32.6974 16.5441 32.6587 16.5634 32.6252 16.59C32.081 16.9922 31.5844 17.4552 31.1452 17.97C31.0882 18.0311 31.0566 18.1115 31.0566 18.195C31.0566 18.2785 31.0882 18.3589 31.1452 18.42C31.1893 18.4594 31.243 18.4865 31.3009 18.4988C31.3587 18.5111 31.4188 18.508 31.4752 18.49L31.3952 18.5ZM62.9752 17.05C63.0386 17.047 63.1001 17.0268 63.1529 16.9916C63.2058 16.9564 63.248 16.9074 63.2752 16.85C63.2916 16.8113 63.3003 16.7697 63.3007 16.7276C63.3011 16.6855 63.2931 16.6438 63.2773 16.6047C63.2615 16.5657 63.2382 16.5302 63.2086 16.5002C63.1791 16.4702 63.144 16.4464 63.1052 16.43C62.4952 16.17 61.8852 15.93 61.2752 15.7C61.1942 15.6706 61.105 15.674 61.0265 15.7095C60.948 15.745 60.8866 15.8098 60.8552 15.89C60.8263 15.9722 60.8311 16.0625 60.8686 16.1412C60.9061 16.2199 60.9732 16.2806 61.0552 16.31C61.6552 16.53 62.2552 16.77 62.8452 17.02C62.9019 17.0444 62.9645 17.0514 63.0252 17.04L62.9752 17.05ZM34.4852 16.17C34.5307 16.1846 34.5797 16.1846 34.6252 16.17C35.1977 15.8939 35.7853 15.6501 36.3852 15.44C36.4254 15.4265 36.4626 15.4051 36.4945 15.3771C36.5264 15.3491 36.5525 15.315 36.5711 15.2769C36.5897 15.2387 36.6005 15.1973 36.6029 15.1549C36.6054 15.1125 36.5993 15.07 36.5852 15.03C36.5717 14.9897 36.5503 14.9526 36.5223 14.9207C36.4943 14.8887 36.4602 14.8627 36.4221 14.8441C36.3839 14.8255 36.3425 14.8147 36.3001 14.8123C36.2577 14.8098 36.2152 14.8158 36.1752 14.83C35.548 15.0484 34.9337 15.3021 34.3352 15.59C34.2589 15.6305 34.2016 15.6992 34.1754 15.7814C34.1493 15.8637 34.1563 15.9529 34.1952 16.03C34.2319 16.0836 34.2841 16.1248 34.3449 16.148C34.4056 16.1713 34.472 16.1754 34.5352 16.16L34.4852 16.17ZM39.4852 15.9C39.546 15.9037 39.6061 15.8861 39.6552 15.85C39.6916 15.8286 39.7233 15.7999 39.7482 15.7658C39.7731 15.7317 39.7908 15.6928 39.8001 15.6516C39.8095 15.6104 39.8104 15.5677 39.8026 15.5262C39.7949 15.4846 39.7788 15.4451 39.7552 15.41C39.5952 15.15 39.4252 14.9 39.2552 14.63L40.1452 14.45C40.2287 14.4354 40.303 14.3882 40.3517 14.3188C40.4005 14.2494 40.4197 14.1635 40.4052 14.08C40.398 14.0376 40.3824 13.9971 40.3592 13.9609C40.3361 13.9247 40.3058 13.8936 40.2704 13.8693C40.2349 13.8451 40.1949 13.8282 40.1528 13.8197C40.1107 13.8113 40.0673 13.8113 40.0252 13.82C39.6352 13.89 39.2452 13.97 38.8652 14.06L38.6652 13.78C38.6412 13.7449 38.6104 13.7149 38.5746 13.6918C38.5389 13.6687 38.4989 13.6529 38.457 13.6455C38.4151 13.638 38.3721 13.639 38.3306 13.6484C38.2891 13.6577 38.2498 13.6753 38.2152 13.7C38.18 13.724 38.15 13.7548 38.1269 13.7906C38.1038 13.8263 38.0881 13.8663 38.0807 13.9082C38.0732 13.9501 38.0742 13.9931 38.0836 14.0346C38.0929 14.0761 38.1104 14.1153 38.1352 14.15L38.1852 14.22H38.1052C38.0217 14.2435 37.9504 14.298 37.9058 14.3723C37.8612 14.4467 37.8467 14.5353 37.8652 14.62C37.8907 14.7016 37.946 14.7706 38.0202 14.8132C38.0943 14.8559 38.1818 14.869 38.2652 14.85L38.5752 14.78C38.8052 15.1 39.0152 15.43 39.2152 15.78C39.2467 15.8176 39.2867 15.8472 39.3319 15.8663C39.3771 15.8854 39.4262 15.8936 39.4752 15.89L39.4852 15.9ZM59.3452 15.69C59.4139 15.6929 59.4817 15.6729 59.5379 15.6331C59.594 15.5933 59.6353 15.5359 59.6552 15.47C59.6805 15.3878 59.6728 15.2989 59.6336 15.2223C59.5943 15.1457 59.5267 15.0875 59.4452 15.06C58.8252 14.87 58.1852 14.68 57.5552 14.52C57.5145 14.508 57.4717 14.5045 57.4296 14.5098C57.3875 14.515 57.3468 14.5288 57.3103 14.5504C57.2737 14.5719 57.242 14.6008 57.217 14.6351C57.192 14.6695 57.1744 14.7086 57.1652 14.75C57.1547 14.7907 57.1522 14.8331 57.1581 14.8747C57.164 14.9164 57.178 14.9565 57.1994 14.9927C57.2207 15.0289 57.249 15.0605 57.2826 15.0858C57.3162 15.1111 57.3544 15.1295 57.3952 15.14C58.0152 15.3 58.6352 15.49 59.2552 15.68L59.3452 15.69ZM55.5852 14.69C55.6594 14.691 55.7316 14.6653 55.7885 14.6176C55.8454 14.5698 55.8832 14.5033 55.8952 14.43C55.9039 14.3886 55.9044 14.3459 55.8966 14.3044C55.8887 14.2628 55.8727 14.2232 55.8495 14.1878C55.8262 14.1525 55.7962 14.1221 55.7611 14.0985C55.7261 14.0748 55.6866 14.0583 55.6452 14.05C55.0052 13.91 54.3552 13.79 53.7152 13.69C53.6316 13.6755 53.5458 13.6947 53.4764 13.7434C53.407 13.7922 53.3598 13.8665 53.3452 13.95C53.3366 13.9922 53.3369 14.0358 53.3461 14.0779C53.3553 14.12 53.3731 14.1598 53.3985 14.1946C53.4239 14.2294 53.4563 14.2585 53.4936 14.2801C53.5309 14.3017 53.5724 14.3153 53.6152 14.32C54.2452 14.43 54.8852 14.55 55.5152 14.68L55.5852 14.69ZM42.0152 14.14C42.6452 14.05 43.2952 13.98 43.9352 13.93C44.021 13.9223 44.1003 13.8815 44.1564 13.8161C44.2125 13.7507 44.2408 13.6659 44.2352 13.58C44.2314 13.5379 44.2193 13.497 44.1997 13.4596C44.18 13.4222 44.1532 13.389 44.1206 13.3621C44.0881 13.3351 44.0505 13.3149 44.0101 13.3025C43.9697 13.2901 43.9272 13.2859 43.8852 13.29C43.2352 13.29 42.5752 13.41 41.8852 13.5C41.8433 13.5048 41.803 13.5182 41.7664 13.5391C41.7299 13.5601 41.698 13.5883 41.6728 13.6219C41.6475 13.6556 41.6294 13.6941 41.6195 13.735C41.6096 13.776 41.6081 13.8185 41.6152 13.86C41.6188 13.9085 41.6334 13.9556 41.658 13.9977C41.6825 14.0397 41.7163 14.0756 41.7568 14.1026C41.7973 14.1296 41.8434 14.147 41.8917 14.1535C41.9399 14.16 41.989 14.1554 42.0352 14.14H42.0152ZM51.7352 14.06C51.8151 14.0603 51.8923 14.0308 51.9515 13.9771C52.0107 13.9234 52.0477 13.8496 52.0552 13.77C52.0637 13.6866 52.0391 13.6032 51.9867 13.5378C51.9344 13.4723 51.8584 13.4301 51.7752 13.42C51.1252 13.34 50.4652 13.28 49.7752 13.24C49.7331 13.2373 49.691 13.2429 49.6511 13.2565C49.6112 13.2702 49.5745 13.2915 49.5429 13.3194C49.5113 13.3473 49.4855 13.3811 49.467 13.4189C49.4485 13.4568 49.4378 13.498 49.4352 13.54C49.4311 13.5823 49.4357 13.6251 49.4488 13.6655C49.4618 13.706 49.4831 13.7433 49.5113 13.7752C49.5394 13.8071 49.5738 13.8329 49.6123 13.8509C49.6509 13.8689 49.6927 13.8788 49.7352 13.88C50.3752 13.93 51.0252 13.98 51.6552 14.06H51.7352ZM45.8952 13.82C46.5452 13.82 47.1852 13.82 47.8352 13.82C47.8767 13.8213 47.9181 13.8143 47.9569 13.7993C47.9956 13.7844 48.031 13.7617 48.0609 13.7328C48.0907 13.7039 48.1144 13.6693 48.1306 13.631C48.1468 13.5927 48.1552 13.5516 48.1552 13.51C48.1565 13.468 48.1495 13.4261 48.1347 13.3867C48.1198 13.3474 48.0974 13.3114 48.0686 13.2808C48.0398 13.2501 48.0052 13.2254 47.9669 13.2081C47.9286 13.1908 47.8872 13.1813 47.8452 13.18C47.1852 13.18 46.5352 13.18 45.8452 13.18C45.8023 13.1812 45.7601 13.1911 45.721 13.209C45.682 13.227 45.647 13.2525 45.6181 13.2843C45.5891 13.316 45.5669 13.3532 45.5527 13.3937C45.5385 13.4342 45.5325 13.4771 45.5352 13.52C45.5372 13.5659 45.5491 13.6108 45.5701 13.6517C45.591 13.6925 45.6205 13.7284 45.6566 13.7569C45.6926 13.7854 45.7344 13.8057 45.779 13.8166C45.8236 13.8275 45.8701 13.8287 45.9152 13.82H45.8952ZM37.2452 12.71C37.318 12.7109 37.3888 12.6861 37.4452 12.64C37.5044 12.5801 37.5376 12.4993 37.5376 12.415C37.5376 12.3308 37.5044 12.2499 37.4452 12.19C37.0452 11.67 36.6252 11.19 36.2052 10.66C36.1453 10.6008 36.0644 10.5675 35.9802 10.5675C35.8959 10.5675 35.8151 10.6008 35.7552 10.66C35.6953 10.7216 35.6618 10.8041 35.6618 10.89C35.6618 10.9759 35.6953 11.0584 35.7552 11.12C36.1652 11.6 36.5852 12.12 36.9752 12.61C37.0068 12.6569 37.0503 12.6946 37.1013 12.7191C37.1522 12.7437 37.2088 12.7544 37.2652 12.75L37.2452 12.71ZM34.7052 9.70999C34.746 9.7102 34.7864 9.70236 34.8242 9.68692C34.8619 9.67148 34.8963 9.64873 34.9252 9.62C34.9558 9.59103 34.9801 9.55614 34.9967 9.51746C35.0134 9.47877 35.0219 9.4371 35.0219 9.39499C35.0219 9.35288 35.0134 9.31124 34.9967 9.27255C34.9801 9.23387 34.9558 9.19898 34.9252 9.17001C34.4752 8.69001 34.0052 8.23001 33.5252 7.79001C33.4962 7.75945 33.4613 7.73511 33.4226 7.71848C33.3839 7.70184 33.3423 7.69324 33.3002 7.69324C33.2581 7.69324 33.2164 7.70184 33.1777 7.71848C33.139 7.73511 33.1041 7.75945 33.0752 7.79001C33.0443 7.81985 33.0198 7.85557 33.0031 7.89508C32.9863 7.93459 32.9777 7.97707 32.9777 8.01999C32.9777 8.06291 32.9863 8.10538 33.0031 8.1449C33.0198 8.18441 33.0443 8.22016 33.0752 8.25C33.5452 8.68 34.0052 9.14001 34.4552 9.60001C34.4815 9.64791 34.5208 9.68739 34.5686 9.71393C34.6163 9.74047 34.6706 9.75298 34.7252 9.75L34.7052 9.70999ZM31.8552 7.06C31.9497 7.05759 32.0395 7.0181 32.1052 6.95001C32.1651 6.88842 32.1985 6.8059 32.1985 6.72C32.1985 6.63411 32.1651 6.55159 32.1052 6.48999C31.5952 6.06999 31.1052 5.67001 30.5452 5.29001C30.5105 5.2653 30.4713 5.24773 30.4298 5.23837C30.3883 5.22901 30.3453 5.22802 30.3034 5.23547C30.2615 5.24292 30.2215 5.25867 30.1858 5.28177C30.15 5.30487 30.1192 5.33485 30.0952 5.37C30.07 5.40404 30.0518 5.44275 30.0417 5.48389C30.0315 5.52502 30.0296 5.56776 30.0362 5.60962C30.0427 5.65148 30.0574 5.69164 30.0796 5.72775C30.1017 5.76387 30.1308 5.79523 30.1652 5.82001C30.6852 6.19334 31.1952 6.58332 31.6952 6.98999C31.7405 7.04657 31.8042 7.08551 31.8752 7.10001L31.8552 7.06ZM28.6852 4.79999C28.7392 4.7998 28.7923 4.78596 28.8395 4.75974C28.8867 4.73351 28.9265 4.69575 28.9552 4.64999C29.0005 4.57677 29.0155 4.48871 28.9968 4.40463C28.9781 4.32055 28.9273 4.24713 28.8552 4.20001C28.2952 3.86001 27.7152 3.53001 27.1352 3.20001C27.0581 3.16117 26.9689 3.15407 26.8866 3.18024C26.8044 3.20641 26.7356 3.26375 26.6952 3.34C26.6568 3.41559 26.65 3.50333 26.6762 3.58395C26.7025 3.66458 26.7596 3.73149 26.8352 3.76999C27.4052 4.06999 27.9652 4.38999 28.5152 4.76999C28.5405 4.79377 28.5705 4.81223 28.6031 4.82425C28.6357 4.83627 28.6704 4.84163 28.7052 4.84L28.6852 4.79999ZM25.2252 3C25.2884 3.00149 25.3506 2.98425 25.404 2.95044C25.4574 2.91663 25.4995 2.86775 25.5252 2.81C25.5416 2.77126 25.5503 2.72968 25.5507 2.68759C25.5511 2.6455 25.5431 2.60374 25.5273 2.56473C25.5115 2.52571 25.4882 2.49019 25.4586 2.46021C25.4291 2.43022 25.394 2.40639 25.3552 2.39001C24.7552 2.13001 24.1352 1.89001 23.5152 1.67001C23.4751 1.65587 23.4327 1.64983 23.3904 1.65225C23.348 1.65468 23.3064 1.6655 23.2683 1.68411C23.2301 1.70273 23.1961 1.72874 23.1681 1.76065C23.1401 1.79256 23.1187 1.82974 23.1052 1.87C23.091 1.91003 23.085 1.95249 23.0874 1.99487C23.0899 2.03726 23.1007 2.07872 23.1193 2.11688C23.1379 2.15504 23.1639 2.18913 23.1958 2.21713C23.2277 2.24514 23.265 2.2665 23.3052 2.28C23.9052 2.49 24.5152 2.73001 25.0952 2.98001C25.1392 3.01251 25.1909 3.03317 25.2452 3.04001L25.2252 3ZM0.325165 2.20001H0.395172L2.2952 1.79999C2.33756 1.79281 2.37802 1.77719 2.41422 1.75403C2.45041 1.73087 2.48157 1.70066 2.50583 1.66519C2.53009 1.62973 2.54697 1.58973 2.55545 1.54761C2.56393 1.50548 2.56387 1.4621 2.55521 1.42001C2.53603 1.33755 2.48586 1.26562 2.41513 1.21909C2.3444 1.17255 2.25852 1.15498 2.1752 1.17001C1.5352 1.29001 0.895218 1.43001 0.255219 1.57001C0.17276 1.58919 0.100822 1.63932 0.0542908 1.71005C0.00775909 1.78078 -0.0098114 1.86669 0.00521851 1.95001C0.0172958 2.03127 0.0583801 2.10538 0.12088 2.15869C0.18338 2.212 0.263039 2.24088 0.345184 2.23999L0.325165 2.20001ZM21.5452 1.72C21.6179 1.7223 21.6891 1.69978 21.7473 1.65616C21.8055 1.61253 21.8471 1.55042 21.8652 1.48001C21.8757 1.4393 21.8781 1.39689 21.8722 1.35526C21.8664 1.31362 21.8524 1.27356 21.831 1.23734C21.8097 1.20112 21.7814 1.16945 21.7478 1.14417C21.7142 1.11888 21.6759 1.10048 21.6352 1.09C21.0052 0.919996 20.3652 0.760005 19.7152 0.630005C19.6304 0.615283 19.5434 0.634207 19.4724 0.68277C19.4014 0.731332 19.3521 0.805707 19.3352 0.890015C19.3201 0.973332 19.3377 1.05922 19.3842 1.12994C19.4308 1.20067 19.5027 1.25081 19.5852 1.26999C20.2252 1.38999 20.8552 1.53999 21.4652 1.70999L21.5452 1.72ZM4.14517 1.44H4.20517C4.87183 1.32667 5.51188 1.22668 6.12521 1.14001C6.20936 1.12528 6.28445 1.07846 6.33481 1.00946C6.38516 0.940457 6.40681 0.854616 6.39517 0.769989C6.39034 0.728159 6.37708 0.687763 6.35611 0.651245C6.33514 0.614727 6.30691 0.582852 6.27322 0.557587C6.23954 0.532321 6.20105 0.514206 6.16013 0.504303C6.1192 0.4944 6.0767 0.49293 6.03519 0.5C5.38519 0.59 4.74519 0.689988 4.09518 0.799988C4.01167 0.814633 3.93739 0.861841 3.88864 0.931213C3.83989 1.00059 3.82066 1.08648 3.83517 1.17001C3.83508 1.21246 3.84375 1.25445 3.86057 1.29343C3.87738 1.3324 3.90202 1.36751 3.93295 1.39658C3.96389 1.42564 4.00049 1.44805 4.04044 1.4624C4.08038 1.47675 4.12283 1.48275 4.16519 1.48001L4.14517 1.44ZM17.7352 0.950012C17.813 0.948551 17.8878 0.91964 17.9463 0.868408C18.0049 0.817176 18.0434 0.746918 18.0552 0.670013C18.0608 0.62794 18.0579 0.585158 18.0468 0.54419C18.0358 0.503221 18.0166 0.464869 17.9906 0.431366C17.9645 0.397863 17.932 0.369866 17.8951 0.34903C17.8581 0.328193 17.8173 0.314933 17.7752 0.309998C17.1352 0.219998 16.4752 0.150006 15.7752 0.100006C15.7337 0.0958936 15.6918 0.10019 15.6519 0.112671C15.6121 0.125152 15.5752 0.145559 15.5435 0.172638C15.5117 0.199717 15.4857 0.232913 15.4671 0.270264C15.4485 0.307615 15.4377 0.348361 15.4352 0.390015C15.4311 0.432072 15.4353 0.474514 15.4477 0.514923C15.46 0.555332 15.4803 0.592886 15.5072 0.625427C15.5342 0.657968 15.5674 0.684865 15.6048 0.704529C15.6422 0.724193 15.6831 0.736231 15.7252 0.73999C16.3752 0.78999 17.0252 0.860012 17.6452 0.950012H17.7352ZM8.00522 0.899994C8.64522 0.829994 9.29521 0.780011 9.93521 0.730011C9.97726 0.727465 10.0184 0.716632 10.0562 0.698151C10.0941 0.679669 10.1279 0.653904 10.1558 0.622315C10.1837 0.590725 10.205 0.553933 10.2187 0.514069C10.2323 0.474204 10.2379 0.432056 10.2352 0.390015C10.2327 0.347051 10.2216 0.30501 10.2025 0.266449C10.1834 0.227888 10.1567 0.193596 10.124 0.165588C10.0913 0.137581 10.0533 0.116441 10.0123 0.103455C9.97127 0.0904687 9.928 0.0858895 9.88516 0.0899964C9.23516 0.0899964 8.58516 0.19001 7.88516 0.26001C7.84307 0.263769 7.80215 0.275808 7.76474 0.295471C7.72733 0.315135 7.69423 0.342032 7.66727 0.374573C7.6403 0.407114 7.62006 0.444668 7.6077 0.485077C7.59533 0.525486 7.59106 0.567928 7.59518 0.609985C7.5901 0.663911 7.59881 0.718263 7.62045 0.767914C7.6421 0.817565 7.67599 0.860914 7.71896 0.89389C7.76193 0.926867 7.81256 0.948385 7.86612 0.956451C7.91968 0.964518 7.9744 0.95886 8.02518 0.940003L8.00522 0.899994ZM13.8452 0.640015C13.9294 0.640169 14.0104 0.608132 14.0717 0.550507C14.1331 0.492882 14.1701 0.413996 14.1752 0.329987C14.1765 0.28713 14.1693 0.244454 14.1538 0.204468C14.1383 0.164482 14.1149 0.128011 14.0851 0.097229C14.0552 0.066447 14.0195 0.0419718 13.98 0.0252686C13.9405 0.00856537 13.8981 -2.09035e-05 13.8552 3.8215e-08C13.2052 3.8215e-08 12.5452 3.8215e-08 11.8552 3.8215e-08C11.8123 -2.09035e-05 11.7699 0.00856537 11.7304 0.0252686C11.6909 0.0419718 11.6551 0.066447 11.6253 0.097229C11.5954 0.128011 11.5721 0.164482 11.5566 0.204468C11.5411 0.244454 11.5338 0.28713 11.5352 0.329987C11.5378 0.413111 11.5726 0.49197 11.6324 0.549835C11.6921 0.607701 11.772 0.640055 11.8552 0.640015H13.8052H13.8452Z" fill="#999999"/>
</svg>
