<svg width="8" height="8" viewBox="0 0 8 8" fill="none" xmlns="http://www.w3.org/2000/svg">
<path d="M0.470374 0.146299C0.00810699 0.399975 -0.0213994 0.614623 0.008107 3.8441L0.0376134 6.84918L0.313006 7.08334L0.588399 7.3175H3.73575H6.8831L7.11915 7.07359C7.3552 6.84918 7.36503 6.79064 7.36503 5.5808C7.36503 4.48805 7.34536 4.30267 7.188 4.16608C6.94211 3.94167 6.61754 3.96119 6.38149 4.19535C6.21428 4.36121 6.18478 4.51732 6.18478 5.26859V6.1467H3.67673H1.16869L1.18836 3.67824L1.21787 1.21954L2.59483 1.19027C3.85377 1.17076 3.98163 1.15124 4.14884 0.965866C4.37505 0.68292 4.36522 0.526813 4.07015 0.243867C3.8341 0.00970507 3.8046 -5.14984e-05 2.2801 -5.14984e-05C1.12935 0.00970507 0.657248 0.0389752 0.470374 0.146299Z" fill="#FA7436"/>
</svg>
