<svg width="8" height="8" viewBox="0 0 8 8" fill="none" xmlns="http://www.w3.org/2000/svg">
<path d="M0.678647 0.0560398C0.560622 0.0755533 0.363912 0.202391 0.236051 0.338985L0 0.59266V3.6953V6.79795L0.236051 7.05162L0.472102 7.3053H3.65879H6.84548L7.08153 7.06138C7.31759 6.83697 7.32742 6.77843 7.32742 5.55884C7.32742 4.35876 7.31759 4.28071 7.11104 4.14411C6.80614 3.92947 6.57993 3.94898 6.34387 4.20265C6.17667 4.37828 6.14717 4.54414 6.14717 5.2759V6.13449H3.63912H1.13108L1.15075 3.66603L1.18026 1.20734L2.57689 1.17806C3.95386 1.15855 3.98336 1.14879 4.14073 0.904876C4.34728 0.602417 4.20958 0.221904 3.826 0.08531C3.58994 -0.0122574 1.11141 -0.0317709 0.678647 0.0560398Z" fill="#FA7436"/>
</svg>
