<svg width="5" height="5" viewBox="0 0 5 5" fill="none" xmlns="http://www.w3.org/2000/svg">
<path d="M1.75433 0.0481758C0.0921351 0.350635 -0.586512 2.50687 0.593744 3.75574C1.40025 4.60457 2.90508 4.65336 3.75093 3.85331C4.62628 3.02398 4.7148 1.70682 3.94764 0.818959C3.36734 0.145743 2.62968 -0.117689 1.75433 0.0481758ZM2.98376 1.50193C3.22965 1.73609 3.27883 1.86293 3.27883 2.23369C3.27883 2.6142 3.22965 2.72152 2.95425 2.96544C2.2461 3.59963 1.1642 3.14106 1.1642 2.20442C1.1642 1.78488 1.49861 1.31655 1.87235 1.21898C2.32479 1.09215 2.63952 1.1702 2.98376 1.50193Z" fill="#FA7436"/>
</svg>
