<svg width="108" height="74" viewBox="0 0 108 74" fill="none" xmlns="http://www.w3.org/2000/svg">
<path d="M0.655581 42.3229L0.515569 41.5454C0.507949 41.5032 0.508877 41.4599 0.518316 41.4181C0.527756 41.3763 0.545511 41.3368 0.570516 41.3019C0.595521 41.2671 0.627273 41.2376 0.663882 41.2153C0.700492 41.193 0.741216 41.1783 0.783632 41.172C0.825828 41.1644 0.869116 41.1653 0.910942 41.1748C0.952768 41.1842 0.992267 41.2019 1.0271 41.2269C1.06193 41.2519 1.09139 41.2837 1.11371 41.3203C1.13603 41.3569 1.15077 41.3977 1.15705 41.4401C1.27225 42.0798 1.38567 42.7096 1.49732 43.3297C1.51526 43.4137 1.49972 43.5014 1.454 43.5742C1.40828 43.6469 1.33598 43.6989 1.25249 43.7192C1.16708 43.7348 1.07896 43.717 1.0062 43.6697C0.933437 43.6223 0.881551 43.549 0.861167 43.4646L0.655581 42.3229ZM0.279013 39.6676C0.163814 39.0279 0.15688 38.3687 0.120415 37.7148C0.117801 37.6725 0.123641 37.63 0.137594 37.5899C0.151547 37.5498 0.173334 37.5129 0.201689 37.4813C0.230043 37.4497 0.264399 37.4241 0.302753 37.4059C0.341106 37.3878 0.382694 37.3774 0.425093 37.3754C0.467456 37.3728 0.509917 37.3787 0.550001 37.3926C0.590086 37.4066 0.626988 37.4284 0.658571 37.4567C0.690155 37.4851 0.715787 37.5194 0.733966 37.5578C0.752144 37.5961 0.762507 37.6377 0.764459 37.6801C0.799152 38.3242 0.853536 38.9647 0.925823 39.5918C0.933498 39.6776 0.907327 39.763 0.852901 39.8297C0.798475 39.8965 0.720105 39.9393 0.634529 39.9491C0.592692 39.954 0.550285 39.9507 0.509751 39.9392C0.469217 39.9277 0.431353 39.9083 0.398323 39.8822C0.365293 39.856 0.337756 39.8236 0.317283 39.7868C0.29681 39.75 0.283796 39.7095 0.279013 39.6676V39.6676ZM1.30871 45.3857C1.29377 45.306 1.30864 45.2237 1.35048 45.1543C1.39233 45.0849 1.45824 45.0334 1.53564 45.0095C1.61925 44.9888 1.70764 45.0016 1.78194 45.0451C1.85623 45.0887 1.91053 45.1596 1.93327 45.2427C2.07286 45.7358 2.21875 46.2074 2.38965 46.705L2.50621 47.0701C2.52065 47.1103 2.52693 47.1529 2.52465 47.1955C2.52237 47.2381 2.51159 47.2799 2.49294 47.3183C2.47429 47.3566 2.44814 47.3909 2.41605 47.419C2.38395 47.4472 2.34655 47.4686 2.30605 47.4821C2.22593 47.5081 2.13877 47.5015 2.06349 47.4637C1.9882 47.4259 1.93085 47.36 1.9039 47.2802L1.7775 46.9168C1.60838 46.4291 1.46249 45.9575 1.31403 45.4152L1.30871 45.3857ZM0.0100371 35.8041L0.00117245 35.7549C-0.00222278 35.1154 0.000692363 34.4544 0.0250499 33.7997C0.0293115 33.7152 0.0659061 33.6355 0.127268 33.5772C0.18863 33.5189 0.270055 33.4863 0.354717 33.4864C0.398026 33.4869 0.440772 33.4963 0.480357 33.5139C0.519942 33.5315 0.555545 33.5569 0.585011 33.5886C0.614478 33.6204 0.637197 33.6578 0.651786 33.6985C0.666374 33.7393 0.672522 33.7826 0.669876 33.8259C0.653588 34.4689 0.637301 35.112 0.650538 35.7498C0.650926 35.8345 0.617661 35.916 0.558025 35.9763C0.49839 36.0366 0.417263 36.0707 0.332476 36.0712C0.262979 36.0615 0.198587 36.0293 0.149217 35.9794C0.0998464 35.9296 0.0682384 35.8649 0.0592486 35.7953L0.0100371 35.8041ZM2.56639 49.0406C2.55431 48.9679 2.56771 48.8932 2.60432 48.8292C2.64093 48.7653 2.69851 48.7159 2.76733 48.6894C2.80633 48.672 2.84851 48.6628 2.89122 48.6625C2.93392 48.6622 2.97623 48.6707 3.01551 48.6874C3.05478 48.7042 3.09017 48.7289 3.11945 48.76C3.14872 48.7911 3.17125 48.8279 3.18563 48.8681C3.42168 49.4454 3.68096 50.0389 3.95992 50.6288C3.97749 50.667 3.98737 50.7083 3.98898 50.7503C3.99059 50.7923 3.98389 50.8342 3.96929 50.8737C3.95469 50.9131 3.93246 50.9493 3.90387 50.9801C3.87528 51.0109 3.8409 51.0358 3.80269 51.0534C3.72432 51.0894 3.63497 51.0932 3.55377 51.0642C3.47258 51.0351 3.40599 50.9754 3.36824 50.8979C3.08928 50.308 2.82823 49.7047 2.58864 49.1077L2.56639 49.0406ZM0.13553 31.9306L0.121354 31.8519C0.178781 31.2115 0.234429 30.5614 0.319609 29.9059C0.330208 29.8219 0.373676 29.7455 0.440488 29.6935C0.507301 29.6414 0.591999 29.618 0.676049 29.6283C0.718193 29.6322 0.7591 29.6448 0.796225 29.6651C0.83335 29.6854 0.86591 29.7131 0.891915 29.7465C0.91792 29.7799 0.936814 29.8183 0.947426 29.8593C0.958039 29.9002 0.960151 29.943 0.953627 29.9848C0.886358 30.6269 0.81908 31.2689 0.769723 31.8976C0.76798 31.9401 0.757547 31.9817 0.739067 32.0199C0.720587 32.0581 0.694465 32.0921 0.662301 32.1198C0.630138 32.1475 0.592628 32.1683 0.552095 32.1809C0.511563 32.1935 0.468864 32.1977 0.426662 32.1931C0.362891 32.1791 0.305173 32.1454 0.26173 32.0966C0.218286 32.0479 0.191333 31.9867 0.184727 31.9217L0.13553 31.9306ZM4.20178 52.5361C4.19043 52.4678 4.20089 52.3976 4.23165 52.3355C4.26242 52.2734 4.31193 52.2226 4.37319 52.1903C4.44836 52.1513 4.53593 52.1437 4.61669 52.1691C4.69745 52.1946 4.76484 52.251 4.80408 52.326C5.09919 52.8927 5.41398 53.4558 5.74667 54.0056C5.78749 54.0806 5.79857 54.1682 5.77772 54.2511C5.75686 54.3339 5.70559 54.4058 5.63411 54.4526C5.5583 54.4956 5.46856 54.5069 5.38448 54.4839C5.3004 54.461 5.2288 54.4057 5.18532 54.3302C4.85262 53.7805 4.53429 53.1977 4.23919 52.631L4.20178 52.5361ZM0.598193 28.0674L0.5787 27.9592C0.687109 27.3198 0.805344 26.6787 0.935208 26.0457C0.943351 26.0039 0.959747 25.9642 0.983425 25.9289C1.0071 25.8935 1.03759 25.8632 1.07311 25.8398C1.10863 25.8164 1.14847 25.8003 1.19029 25.7924C1.2321 25.7846 1.27508 25.7852 1.31667 25.7941C1.35844 25.8023 1.39814 25.8186 1.4335 25.8423C1.46885 25.866 1.49912 25.8965 1.52254 25.932C1.54597 25.9675 1.56208 26.0073 1.56992 26.0492C1.57777 26.091 1.57721 26.134 1.56825 26.1755C1.43661 26.7987 1.3166 27.43 1.21803 28.0676C1.2033 28.151 1.1561 28.2252 1.08677 28.2738C1.01744 28.3225 0.93165 28.3417 0.84819 28.3272C0.795912 28.3074 0.749979 28.2737 0.715254 28.2299C0.680529 28.1861 0.658297 28.1337 0.650932 28.0782L0.598193 28.0674ZM6.17375 55.8694C6.16358 55.8076 6.17069 55.7441 6.1943 55.6861C6.21792 55.628 6.25712 55.5776 6.30757 55.5404C6.34592 55.5022 6.39306 55.4741 6.44486 55.4584C6.49666 55.4427 6.55152 55.44 6.60461 55.4505C6.65771 55.461 6.7074 55.4845 6.74931 55.5187C6.79122 55.5529 6.82406 55.597 6.84494 55.6469C7.19378 56.1734 7.55422 56.708 7.93258 57.2292C7.95769 57.2633 7.97577 57.3021 7.98577 57.3432C7.99578 57.3844 7.99751 57.4272 7.99087 57.469C7.98422 57.5108 7.96934 57.551 7.94707 57.587C7.92481 57.623 7.89561 57.6543 7.86117 57.679C7.79138 57.7271 7.70573 57.7466 7.62199 57.7333C7.53824 57.72 7.46284 57.675 7.4114 57.6076C7.03127 57.0765 6.65919 56.5339 6.29874 55.9993L6.17375 55.8694ZM1.38721 24.2674C1.37027 24.227 1.36241 24.1833 1.36417 24.1395C1.52533 23.511 1.69634 22.8807 1.87895 22.2585C1.89006 22.2176 1.90918 22.1793 1.93519 22.1459C1.9612 22.1124 1.99359 22.0845 2.03048 22.0637C2.06738 22.0429 2.10804 22.0296 2.15011 22.0246C2.19218 22.0196 2.23483 22.023 2.27557 22.0346C2.35919 22.0589 2.42982 22.1153 2.47208 22.1914C2.51434 22.2675 2.52479 22.3573 2.50117 22.4411C2.31678 23.0535 2.144 23.6739 1.99091 24.2908C1.98167 24.3319 1.96441 24.3707 1.94014 24.4051C1.91587 24.4395 1.88506 24.4687 1.84946 24.4912C1.81386 24.5137 1.77418 24.5288 1.73269 24.5359C1.69121 24.543 1.64873 24.5419 1.60769 24.5326C1.56136 24.5068 1.52193 24.4702 1.49273 24.4259C1.46354 24.3816 1.44544 24.331 1.43997 24.2783L1.38721 24.2674ZM8.45553 59.0046C8.44499 58.9489 8.44941 58.8915 8.46836 58.8381C8.48731 58.7847 8.52009 58.7373 8.56336 58.7007C8.59634 58.6735 8.63446 58.6531 8.67544 58.6409C8.71642 58.6286 8.75944 58.6247 8.80196 58.6294C8.84448 58.634 8.88563 58.6472 8.92298 58.668C8.96034 58.6888 8.99313 58.7169 9.01944 58.7507C9.42378 59.2469 9.83796 59.7413 10.2978 60.2072C10.3524 60.2736 10.3798 60.3581 10.3745 60.4439C10.3692 60.5297 10.3316 60.6103 10.2693 60.6695C10.2376 60.6973 10.2008 60.7186 10.1609 60.7322C10.121 60.7457 10.0788 60.7512 10.0367 60.7484C9.9947 60.7456 9.95363 60.7345 9.91588 60.7158C9.87813 60.697 9.84444 60.671 9.81677 60.6392C9.38467 60.1582 8.96872 59.6539 8.53131 59.1434C8.50321 59.1073 8.48206 59.0663 8.46891 59.0225L8.45553 59.0046ZM2.47661 20.5556C2.45258 20.5068 2.44276 20.4522 2.44826 20.3981C2.66217 19.7804 2.87786 19.1726 3.13291 18.5577C3.16665 18.4786 3.22908 18.4153 3.30763 18.3804C3.38618 18.3455 3.47502 18.3417 3.55629 18.3697C3.63534 18.4034 3.69869 18.4658 3.73357 18.5444C3.76845 18.6229 3.77228 18.7117 3.7443 18.793C3.50716 19.3946 3.2897 19.9926 3.05433 20.604C3.04144 20.6448 3.02051 20.6825 2.99277 20.7151C2.96503 20.7476 2.93105 20.7743 2.89283 20.7935C2.85461 20.8127 2.81293 20.8241 2.77025 20.8269C2.72757 20.8297 2.68474 20.8239 2.64433 20.8099C2.61327 20.7769 2.5896 20.7376 2.57487 20.6947C2.56014 20.6518 2.55469 20.6062 2.55889 20.5611L2.47661 20.5556ZM11.0105 61.9078C11.002 61.8546 11.0067 61.8002 11.0241 61.7492C11.0415 61.6983 11.071 61.6523 11.1103 61.6155C11.174 61.5594 11.2565 61.5291 11.3414 61.5308C11.4263 61.5324 11.5075 61.5658 11.5691 61.6243C12.0075 62.0839 12.4754 62.5381 12.9398 62.9727C12.9997 63.0327 13.0343 63.1134 13.0363 63.1982C13.0383 63.2829 13.0077 63.3652 12.9506 63.428C12.9223 63.4592 12.888 63.4846 12.8499 63.5026C12.8117 63.5205 12.7703 63.5308 12.7282 63.5327C12.686 63.5346 12.6439 63.5282 12.6043 63.5138C12.5646 63.4993 12.5282 63.4772 12.4971 63.4487C12.0211 63.006 11.5514 62.5419 11.1014 62.0743C11.061 62.0338 11.0339 61.982 11.0239 61.9257L11.0105 61.9078ZM3.92545 16.9213C3.91531 16.8574 3.92478 16.7919 3.9526 16.7335C4.2112 16.1383 4.49125 15.5493 4.77307 14.9702C4.79114 14.9305 4.8171 14.895 4.84938 14.8657C4.88167 14.8365 4.91959 14.8141 4.96081 14.8001C5.00204 14.786 5.0457 14.7805 5.08913 14.7839C5.13256 14.7873 5.17485 14.7995 5.21339 14.8198C5.25098 14.8389 5.2844 14.8653 5.31174 14.8975C5.33908 14.9296 5.35981 14.9668 5.37271 15.007C5.38561 15.0472 5.39044 15.0895 5.38692 15.1316C5.3834 15.1736 5.3716 15.2145 5.35219 15.252C5.07037 15.8311 4.79129 16.3691 4.54962 17.0019C4.51243 17.0786 4.44705 17.1379 4.36715 17.1674C4.28725 17.197 4.19902 17.1945 4.12093 17.1604C4.07502 17.1409 4.03448 17.1106 4.00278 17.0721C3.97108 17.0336 3.94915 16.988 3.93884 16.9392L3.92545 16.9213ZM13.8942 64.5485C13.8863 64.5013 13.8889 64.4529 13.9016 64.4067C13.9144 64.3606 13.937 64.3177 13.9679 64.2812C13.9956 64.2495 14.0292 64.2236 14.0669 64.2049C14.1045 64.1862 14.1455 64.1751 14.1875 64.1723C14.2294 64.1695 14.2715 64.1749 14.3114 64.1884C14.3512 64.2018 14.388 64.223 14.4197 64.2506C14.8984 64.6522 15.4138 65.0877 15.9167 65.4544C15.9866 65.5044 16.0341 65.5797 16.0494 65.6642C16.0646 65.7487 16.0462 65.8359 15.9982 65.9071C15.9743 65.9428 15.9435 65.9732 15.9076 65.9967C15.8717 66.0202 15.8314 66.0362 15.7892 66.0438C15.7469 66.0514 15.7036 66.0505 15.6617 66.041C15.6199 66.0315 15.5804 66.0137 15.5455 65.9886C15.0274 65.5942 14.5121 65.1586 14.0253 64.7688C13.9884 64.7417 13.9575 64.7073 13.9346 64.6677C13.9118 64.6281 13.8974 64.5841 13.8924 64.5387L13.8942 64.5485ZM5.64593 13.4413C5.63216 13.3698 5.64399 13.2957 5.67937 13.232C5.99249 12.6574 6.32885 12.099 6.65536 11.5423C6.67926 11.5067 6.71009 11.4762 6.746 11.4527C6.78192 11.4292 6.8222 11.4132 6.86444 11.4056C6.90667 11.398 6.95001 11.399 6.99187 11.4084C7.03372 11.4179 7.07324 11.4357 7.10807 11.4608C7.17699 11.5093 7.22402 11.5829 7.23895 11.6659C7.25388 11.7488 7.23551 11.8342 7.18783 11.9037C6.85954 12.4505 6.53835 13.0367 6.21991 13.5818C6.17145 13.6507 6.09778 13.6977 6.01487 13.7127C5.93195 13.7276 5.84649 13.7092 5.77704 13.6615C5.74323 13.6385 5.71448 13.6089 5.69254 13.5744C5.6706 13.5399 5.65595 13.5013 5.64947 13.461L5.64593 13.4413ZM17.0045 66.9249C16.9948 66.8393 17.0152 66.753 17.0622 66.6808C17.1137 66.613 17.1889 66.567 17.2727 66.5519C17.3565 66.5368 17.443 66.5537 17.5149 66.5993C18.0376 66.9624 18.5799 67.322 19.1186 67.6619C19.1875 67.7103 19.2346 67.784 19.2495 67.8669C19.2644 67.9498 19.2461 68.0353 19.1984 68.1048C19.1484 68.1716 19.0748 68.217 18.9927 68.2318C18.9105 68.2466 18.8257 68.2297 18.7555 68.1845C18.1953 67.8383 17.6136 67.4858 17.1187 67.1075C17.0619 67.0606 17.0218 66.9965 17.0045 66.9249V66.9249ZM7.7042 10.1443C7.69016 10.0604 7.70715 9.97429 7.75201 9.90201C8.12143 9.35793 8.50245 8.82189 8.88703 8.30556C8.93704 8.23572 9.01232 8.18814 9.09686 8.17292C9.18139 8.15769 9.26853 8.17603 9.33976 8.22403C9.40867 8.27249 9.45569 8.34618 9.47062 8.42909C9.48555 8.512 9.46719 8.59746 9.41951 8.66692C9.04477 9.18148 8.67181 9.70588 8.31046 10.2384C8.26045 10.3082 8.18517 10.3558 8.10064 10.371C8.0161 10.3862 7.92897 10.3679 7.85774 10.3199C7.81514 10.3078 7.77575 10.2864 7.7424 10.2573C7.70905 10.2281 7.68255 10.192 7.66482 10.1514L7.7042 10.1443ZM20.3293 68.968C20.3143 68.8935 20.3255 68.8161 20.3609 68.7489C20.411 68.6791 20.4862 68.6315 20.5708 68.6163C20.6553 68.601 20.7424 68.6194 20.8137 68.6674C21.3668 68.9742 21.9396 69.2775 22.517 69.5495C22.5923 69.5884 22.6498 69.6548 22.6774 69.7349C22.7051 69.8151 22.7009 69.9028 22.6656 69.9799C22.6484 70.0191 22.6233 70.0543 22.5919 70.0833C22.5604 70.1123 22.5233 70.1345 22.4829 70.1484C22.4425 70.1624 22.3996 70.1678 22.3569 70.1644C22.3143 70.161 22.2728 70.1488 22.2351 70.1286C21.6462 69.8485 21.1127 69.5382 20.4988 69.2321C20.4396 69.2164 20.386 69.1845 20.3439 69.1401C20.3018 69.0956 20.2729 69.0403 20.2604 68.9804L20.3293 68.968ZM10.0591 7.02761C10.048 6.98145 10.048 6.93331 10.0591 6.88714C10.0702 6.84098 10.0921 6.79812 10.1231 6.76208C10.5407 6.26011 10.9601 5.76798 11.401 5.28215C11.4293 5.25089 11.4636 5.22557 11.5018 5.2076C11.5399 5.18963 11.5813 5.17939 11.6234 5.17747C11.6656 5.17555 11.7077 5.18198 11.7474 5.1964C11.787 5.21081 11.8234 5.2329 11.8545 5.26144C11.9185 5.32018 11.9567 5.40179 11.9609 5.48852C11.9651 5.57526 11.935 5.66016 11.877 5.72482C11.4523 6.18742 11.0328 6.67952 10.6232 7.16987C10.5732 7.23971 10.498 7.28729 10.4134 7.30251C10.3289 7.31773 10.2418 7.2994 10.1705 7.2514C10.1276 7.23034 10.0895 7.20073 10.0585 7.16438C10.0275 7.12802 10.0043 7.0857 9.99022 7.04002L10.0591 7.02761ZM23.8138 70.6572C23.7993 70.598 23.8061 70.5357 23.8329 70.481C23.8665 70.4017 23.9298 70.3387 24.0092 70.3054C24.0886 70.2721 24.1779 70.2712 24.258 70.3028C24.8417 70.5534 25.4432 70.7905 26.0395 70.9981C26.0796 71.012 26.1165 71.0337 26.1482 71.062C26.1798 71.0903 26.2055 71.1246 26.2237 71.1629C26.242 71.2012 26.2524 71.2428 26.2545 71.2852C26.2565 71.3276 26.25 71.37 26.2355 71.4099C26.2053 71.4893 26.1457 71.554 26.069 71.5905C25.9923 71.627 25.9045 71.6326 25.8238 71.606C25.2142 71.3804 24.6028 71.1451 24.003 70.9178C23.9448 70.9014 23.8925 70.8689 23.8521 70.824C23.8117 70.7791 23.7847 70.7238 23.7744 70.6642L23.8138 70.6572ZM12.6622 4.16086C12.652 4.10878 12.6548 4.05496 12.6705 4.00424C12.6862 3.95352 12.7143 3.9075 12.7522 3.87034C13.2082 3.41226 13.6857 2.96048 14.1667 2.52839C14.2293 2.47156 14.3119 2.44182 14.3963 2.44565C14.4808 2.44948 14.5603 2.48657 14.6175 2.54883C14.6751 2.61286 14.7054 2.69688 14.7019 2.78294C14.6984 2.869 14.6614 2.95029 14.5988 3.00944C14.1259 3.42992 13.6582 3.87991 13.2004 4.32814C13.1707 4.35861 13.1352 4.38285 13.096 4.39942C13.0568 4.41599 13.0147 4.42458 12.9721 4.42467C12.9295 4.42477 12.8874 4.41636 12.8481 4.39996C12.8088 4.38356 12.7732 4.35951 12.7434 4.32918C12.6803 4.29158 12.6285 4.23773 12.5934 4.17327L12.6622 4.16086ZM27.4546 71.9727C27.4325 71.9269 27.4233 71.8758 27.428 71.8251C27.4525 71.7439 27.5082 71.6758 27.5829 71.6357C27.6576 71.5956 27.7452 71.5867 27.8264 71.6111C28.4486 71.7937 29.0691 71.9665 29.6842 72.1098C29.7252 72.1188 29.764 72.1362 29.7981 72.1607C29.8323 72.1853 29.8611 72.2165 29.8828 72.2525C29.9044 72.2885 29.9186 72.3285 29.9243 72.3702C29.93 72.4118 29.9272 72.4542 29.9161 72.4948C29.9068 72.5358 29.8896 72.5746 29.8653 72.609C29.841 72.6434 29.8102 72.6727 29.7746 72.6951C29.739 72.7176 29.6994 72.7328 29.6579 72.7399C29.6164 72.747 29.5739 72.7458 29.5329 72.7365C28.9061 72.5852 28.2758 72.4142 27.6438 72.2333C27.5814 72.2212 27.5239 72.1913 27.4782 72.1473C27.4324 72.1033 27.4003 72.047 27.3857 71.9851L27.4546 71.9727ZM15.5368 1.56025C15.5273 1.5046 15.5322 1.44741 15.5511 1.3942C15.57 1.34099 15.6022 1.29356 15.6447 1.25636C16.1546 0.852932 16.6722 0.454866 17.1976 0.0622027C17.2318 0.0370975 17.2705 0.0189842 17.3117 0.00897966C17.3529 -0.00102489 17.3956 -0.00269843 17.4375 0.00394518C17.4793 0.0105888 17.5194 0.0254301 17.5554 0.0476943C17.5915 0.0699584 17.6228 0.0992017 17.6474 0.133643C17.6725 0.167767 17.6906 0.206498 17.7006 0.247665C17.7106 0.288831 17.7124 0.331606 17.7057 0.373447C17.6991 0.415288 17.6842 0.455371 17.6619 0.491414C17.6396 0.527457 17.6105 0.558742 17.576 0.583412C17.0647 0.959999 16.547 1.358 16.0606 1.76057C16.0277 1.7878 15.9896 1.80818 15.9486 1.82044C15.9076 1.83269 15.8646 1.83659 15.8221 1.83193C15.7795 1.82728 15.7384 1.81416 15.701 1.79332C15.6637 1.77249 15.6309 1.74433 15.6046 1.7106C15.5445 1.68167 15.4963 1.63298 15.468 1.57265L15.5368 1.56025ZM31.2302 72.9084L31.2107 72.8002C31.2274 72.7157 31.2764 72.641 31.3473 72.5921C31.4183 72.5433 31.5055 72.5241 31.5904 72.5387C32.0634 72.6263 32.5445 72.7022 33.022 72.7585L33.4897 72.8165C33.5737 72.8271 33.6501 72.8706 33.7021 72.9374C33.7541 73.0042 33.7776 73.0889 33.7672 73.1729C33.7632 73.2152 33.7507 73.2563 33.7306 73.2938C33.7105 73.3312 33.6832 73.3643 33.6502 73.391C33.6172 73.4178 33.5791 73.4377 33.5383 73.4496C33.4975 73.4615 33.4548 73.4652 33.4126 73.4604L32.9449 73.4023C32.4459 73.3398 31.9648 73.2638 31.4721 73.1798C31.3907 73.1753 31.3137 73.1417 31.255 73.0851C31.1963 73.0285 31.1599 72.9528 31.1524 72.8716L31.2302 72.9084ZM35.0817 73.363L35.0675 73.2843C35.0739 73.1991 35.113 73.1197 35.1766 73.0628C35.2403 73.0058 35.3235 72.9758 35.4088 72.9789C36.0358 73.0185 36.6806 73.0446 37.3317 73.0493C37.3734 73.049 37.4147 73.0572 37.4532 73.0733C37.4916 73.0894 37.5265 73.1131 37.5556 73.1429C37.5847 73.1728 37.6074 73.2082 37.6225 73.2471C37.6376 73.2859 37.6447 73.3274 37.6434 73.3691C37.6438 73.4539 37.6105 73.5354 37.5508 73.5956C37.4912 73.6559 37.4101 73.6901 37.3253 73.6906C36.6643 73.6877 36.0096 73.6633 35.3729 73.6256C35.3289 73.6309 35.2842 73.6274 35.2416 73.6152C35.199 73.6029 35.1593 73.5822 35.1248 73.5543C35.0904 73.5263 35.0619 73.4917 35.0412 73.4525C35.0204 73.4134 35.0078 73.3704 35.004 73.3262L35.0817 73.363ZM38.959 73.3964L38.9502 73.3471C38.9476 73.2629 38.9783 73.1811 39.0357 73.1194C39.093 73.0577 39.1724 73.0211 39.2566 73.0176C39.9281 72.9848 40.5721 72.9501 41.1888 72.9135C41.2305 72.9098 41.2725 72.9145 41.3124 72.9274C41.3522 72.9404 41.389 72.9612 41.4206 72.9888C41.4521 73.0163 41.4778 73.05 41.496 73.0878C41.5141 73.1255 41.5245 73.1665 41.5264 73.2084C41.5301 73.2505 41.5255 73.2929 41.5128 73.3332C41.5 73.3735 41.4795 73.4109 41.4522 73.4432C41.425 73.4755 41.3916 73.5021 41.354 73.5214C41.3164 73.5407 41.2754 73.5524 41.2333 73.5558C40.5812 73.6021 39.9371 73.6368 39.2815 73.6635C39.2345 73.6777 39.1849 73.6807 39.1366 73.6721C39.0883 73.6634 39.0428 73.6434 39.0037 73.6138C38.9647 73.5841 38.9332 73.5456 38.9119 73.5014C38.8906 73.4572 38.8801 73.4086 38.8813 73.3595L38.959 73.3964ZM42.8207 73.1175C42.817 73.0755 42.8216 73.033 42.8343 72.9927C42.8471 72.9524 42.8676 72.915 42.8949 72.8827C42.9221 72.8504 42.9555 72.8239 42.9931 72.8045C43.0307 72.7852 43.0717 72.7735 43.1138 72.7701C43.7437 72.6567 44.3877 72.622 45.0229 72.5381C45.0654 72.5317 45.1087 72.5339 45.1502 72.5447C45.1918 72.5554 45.2308 72.5744 45.2649 72.6004C45.299 72.6265 45.3275 72.6592 45.3487 72.6966C45.3699 72.7339 45.3833 72.7751 45.3883 72.8178C45.3946 72.8602 45.3924 72.9035 45.3817 72.9451C45.371 72.9867 45.352 73.0256 45.3259 73.0597C45.2998 73.0938 45.2671 73.1223 45.2298 73.1435C45.1924 73.1647 45.1512 73.1782 45.1086 73.1831C44.4689 73.2983 43.8168 73.3446 43.178 73.4088C43.1271 73.4287 43.072 73.4352 43.0179 73.4278C42.9638 73.4203 42.9125 73.3991 42.8689 73.3662C42.8253 73.3334 42.7908 73.2899 42.7688 73.2399C42.7467 73.1899 42.7379 73.1351 42.743 73.0807L42.8207 73.1175ZM46.6631 72.6187C46.6555 72.5769 46.6566 72.534 46.6662 72.4927C46.6759 72.4513 46.6939 72.4124 46.7192 72.3783C46.7445 72.3443 46.7765 72.3157 46.8133 72.2945C46.8501 72.2733 46.8908 72.2599 46.933 72.2551C47.5727 72.1399 48.2026 72.0265 48.8324 71.913C48.916 71.898 49.002 71.9167 49.0717 71.9652C49.1414 72.0136 49.189 72.0877 49.2041 72.1712V72.1712C49.2103 72.2128 49.2082 72.2552 49.198 72.296C49.1877 72.3368 49.1696 72.3752 49.1445 72.409C49.1194 72.4427 49.088 72.4712 49.0519 72.4928C49.0158 72.5144 48.9758 72.5287 48.9342 72.5348C48.3044 72.6482 47.6647 72.7634 47.025 72.8786C46.9764 72.8982 46.9238 72.9055 46.8717 72.9C46.8196 72.8945 46.7697 72.8763 46.7263 72.847C46.6829 72.8177 46.6474 72.7782 46.6228 72.732C46.5983 72.6858 46.5854 72.6342 46.5854 72.5818L46.6631 72.6187ZM50.4924 71.9901C50.4773 71.9073 50.4944 71.8218 50.5403 71.7512C50.5861 71.6807 50.6572 71.6302 50.739 71.6103C51.3393 71.5022 51.9692 71.3888 52.6109 71.1717C52.6945 71.151 52.7828 71.1637 52.8571 71.2073C52.9314 71.2509 52.9857 71.3218 53.0085 71.4049C53.0267 71.4883 53.0128 71.5756 52.9695 71.6493C52.9263 71.7229 52.857 71.7776 52.7753 71.8025C52.1167 71.9821 51.4724 72.1286 50.8246 72.2554C50.7411 72.2704 50.655 72.2517 50.5853 72.2032C50.5156 72.1548 50.468 72.0807 50.453 71.9972L50.4924 71.9901ZM54.2345 70.991C54.22 70.914 54.2343 70.8343 54.2747 70.7671C54.315 70.6999 54.3786 70.6499 54.4534 70.6265C55.0476 70.428 55.6499 70.2179 56.2684 69.9846C56.3492 69.9551 56.4383 69.9583 56.5167 69.9936C56.5952 70.0288 56.6568 70.0932 56.6884 70.1732C56.7179 70.254 56.7147 70.3431 56.6795 70.4215C56.6443 70.5 56.5799 70.5616 56.4999 70.5933C55.8716 70.8283 55.2595 71.0402 54.6554 71.2404C54.5727 71.2669 54.4828 71.2597 54.4054 71.2204C54.3279 71.1811 54.2691 71.1128 54.2416 71.0304L54.2345 70.991ZM57.8718 69.6349C57.8577 69.562 57.8702 69.4865 57.9071 69.4221C57.9439 69.3576 58.0027 69.3085 58.0727 69.2838C58.6483 69.0379 59.2417 68.7786 59.8334 68.5095C59.9131 68.4736 60.0039 68.4709 60.0857 68.5019C60.1675 68.5328 60.2336 68.5951 60.2696 68.6748C60.3023 68.7537 60.3032 68.8422 60.272 68.9217C60.2409 69.0012 60.1801 69.0655 60.1025 69.1011C59.501 69.372 58.9075 69.6313 58.3123 69.8808C58.233 69.9103 58.1453 69.9082 58.0675 69.875C57.9896 69.8417 57.9275 69.7798 57.894 69.7021L57.8718 69.6349ZM61.4039 68.0336C61.393 67.9639 61.4047 67.8925 61.4373 67.8299C61.4699 67.7674 61.5218 67.7169 61.5852 67.686C62.1554 67.4105 62.7319 67.1137 63.3084 66.8168C63.3453 66.7961 63.3861 66.7832 63.4282 66.7788C63.4703 66.7745 63.5128 66.7788 63.5532 66.7915C63.5936 66.8042 63.6309 66.8251 63.6629 66.8528C63.6949 66.8805 63.7209 66.9145 63.7393 66.9526C63.76 66.9895 63.7729 67.0303 63.7773 67.0724C63.7816 67.1145 63.7773 67.157 63.7646 67.1974C63.7518 67.2378 63.731 67.2751 63.7033 67.3071C63.6756 67.3391 63.6416 67.3651 63.6035 67.3835C63.0288 67.6902 62.4522 67.9871 61.8722 68.2643C61.8343 68.2835 61.793 68.295 61.7506 68.298C61.7082 68.3011 61.6656 68.2957 61.6253 68.2821C61.5851 68.2686 61.5479 68.2472 61.516 68.2191C61.4841 68.191 61.4581 68.1569 61.4395 68.1186L61.4039 68.0336ZM64.838 66.2264C64.8246 66.1593 64.8331 66.0897 64.8621 66.0277C64.8912 65.9658 64.9394 65.9148 64.9995 65.8823C65.5627 65.5675 66.1142 65.2447 66.6639 64.912C66.6998 64.8891 66.7398 64.8735 66.7818 64.8663C66.8237 64.8591 66.8667 64.8602 66.9081 64.8698C66.9496 64.8794 66.9887 64.8971 67.0232 64.922C67.0578 64.9469 67.087 64.9784 67.1092 65.0147C67.1525 65.0891 67.1649 65.1776 67.1439 65.2611C67.1229 65.3446 67.07 65.4166 66.9966 65.4617C66.4469 65.7944 65.8873 66.1288 65.3143 66.4454C65.2412 66.4881 65.1541 66.5 65.0721 66.4786C64.9902 66.4572 64.92 66.4041 64.8771 66.3311L64.838 66.2264ZM68.1526 64.207C68.1418 64.1439 68.1497 64.079 68.1752 64.0203C68.2007 63.9615 68.2428 63.9115 68.2962 63.8763C68.8424 63.5239 69.377 63.1634 69.8901 62.7967C69.9244 62.7704 69.9637 62.7515 70.0057 62.7413C70.0477 62.7311 70.0913 62.7298 70.1339 62.7374C70.1764 62.7451 70.2168 62.7615 70.2526 62.7857C70.2884 62.8099 70.3187 62.8413 70.3417 62.878C70.3665 62.9114 70.3842 62.9495 70.394 62.9899C70.4038 63.0304 70.4053 63.0724 70.3984 63.1135C70.3916 63.1545 70.3766 63.1938 70.3542 63.2289C70.3319 63.264 70.3027 63.2943 70.2685 63.3179C69.7374 63.698 69.2029 64.0585 68.6486 64.4225C68.6134 64.4455 68.574 64.4614 68.5326 64.4693C68.4913 64.4771 68.4488 64.4767 68.4076 64.468C68.3664 64.4594 68.3273 64.4427 68.2925 64.419C68.2578 64.3952 68.2281 64.3649 68.2051 64.3296L68.1526 64.207ZM69.14 55.1892C69.0248 54.5495 68.9964 53.884 68.9617 53.24C68.9576 53.1973 68.9625 53.1542 68.9759 53.1135C68.9893 53.0728 69.011 53.0353 69.0396 53.0034C69.0682 52.9716 69.1032 52.946 69.1422 52.9283C69.1812 52.9106 69.2235 52.9011 69.2664 52.9006C69.3087 52.898 69.3512 52.9038 69.3913 52.9178C69.4314 52.9317 69.4683 52.9535 69.4998 52.9818C69.5314 53.0102 69.5571 53.0446 69.5752 53.0829C69.5934 53.1213 69.6038 53.1629 69.6057 53.2053C69.6369 53.8296 69.7029 54.4782 69.785 55.1035C69.7914 55.146 69.7891 55.1893 69.7784 55.2309C69.7677 55.2724 69.7487 55.3114 69.7226 55.3455C69.6965 55.3796 69.6639 55.4081 69.6265 55.4293C69.5892 55.4505 69.548 55.4639 69.5053 55.4689C69.4549 55.4873 69.4008 55.4931 69.3477 55.4859C69.2946 55.4787 69.244 55.4586 69.2004 55.4274C69.1567 55.3963 69.1213 55.3549 69.0973 55.307C69.0732 55.2591 69.0612 55.206 69.0622 55.1524L69.14 55.1892ZM69.4838 57.0985C69.4663 57.0171 69.4813 56.9321 69.5255 56.8615C69.5697 56.7909 69.6397 56.7404 69.7206 56.7206C69.8046 56.7026 69.8923 56.7182 69.965 56.7639C70.0378 56.8096 70.0898 56.8819 70.1101 56.9654C70.2253 57.6051 70.4273 58.219 70.624 58.8034C70.6479 58.8862 70.6395 58.9749 70.6006 59.0517C70.5616 59.1285 70.4949 59.1876 70.414 59.2172C70.3736 59.2301 70.331 59.2349 70.2887 59.2313C70.2464 59.2276 70.2053 59.2156 70.1677 59.1959C70.1301 59.1762 70.0968 59.1492 70.0698 59.1165C70.0427 59.0838 70.0224 59.046 70.0101 59.0054C69.8099 58.4013 69.6338 57.7624 69.4785 57.069L69.4838 57.0985ZM68.9417 51.3232L68.9293 51.2543C68.9513 50.5965 69.0131 49.9407 69.1141 49.2904C69.1267 49.2053 69.172 49.1284 69.2405 49.0762C69.3089 49.0241 69.395 49.0007 69.4804 49.0111C69.5224 49.0172 69.5628 49.0317 69.5992 49.0536C69.6355 49.0755 69.6672 49.1044 69.6923 49.1386C69.7174 49.1729 69.7354 49.2118 69.7453 49.2531C69.7552 49.2944 69.7567 49.3372 69.7499 49.3791C69.6533 50.0088 69.5945 50.6437 69.5741 51.2804C69.5722 51.323 69.5619 51.3649 69.5436 51.4034C69.5253 51.442 69.4996 51.4765 69.4678 51.505C69.436 51.5334 69.3988 51.5552 69.3584 51.5691C69.3181 51.5829 69.2754 51.5886 69.2328 51.5857C69.1892 51.5911 69.1449 51.5875 69.1027 51.5751C69.0605 51.5626 69.0214 51.5416 68.9877 51.5134C68.954 51.4851 68.9265 51.4502 68.9069 51.4108C68.8873 51.3715 68.876 51.3285 68.8738 51.2846L68.9417 51.3232ZM70.7119 60.7588C70.6993 60.689 70.7103 60.6169 70.7431 60.554C70.7759 60.491 70.8287 60.4408 70.8932 60.4112C70.9707 60.3783 71.0578 60.3763 71.1367 60.4055C71.2156 60.4347 71.2804 60.493 71.3178 60.5684C71.4515 60.8593 71.6048 61.1467 71.7546 61.4144C72.155 61.0984 72.5536 60.7726 72.9324 60.4504C72.9991 60.3941 73.0854 60.3665 73.1724 60.3737C73.2594 60.3809 73.34 60.4222 73.3966 60.4887C73.4474 60.5559 73.4714 60.6396 73.464 60.7236C73.4566 60.8075 73.4183 60.8857 73.3565 60.943C72.9498 61.2804 72.5253 61.6312 72.0793 61.9757L72.2434 62.2103C72.2907 62.2828 72.3076 62.3708 72.2906 62.4556C72.2735 62.5404 72.2239 62.6151 72.1523 62.6637C72.1171 62.6867 72.0777 62.7026 72.0364 62.7104C71.995 62.7183 71.9525 62.7179 71.9113 62.7092C71.8701 62.7006 71.8311 62.6839 71.7963 62.6602C71.7616 62.6364 71.7318 62.606 71.7089 62.5708L71.4457 62.1813L71.3823 62.1114C71.3586 62.0589 71.3483 62.0015 71.3521 61.9441C71.147 61.5949 70.958 61.2225 70.7771 60.8385L70.7119 60.7588ZM69.5545 47.5041C69.5357 47.4572 69.5266 47.407 69.5279 47.3565C69.7236 46.7092 70.0053 46.0912 70.3655 45.5189C70.4155 45.4491 70.4908 45.4015 70.5753 45.3863C70.6599 45.3711 70.747 45.3894 70.8182 45.4374C70.8539 45.4613 70.8844 45.4921 70.9079 45.528C70.9313 45.564 70.9474 45.6042 70.955 45.6465C70.9626 45.6887 70.9616 45.732 70.9521 45.7739C70.9426 45.8158 70.9248 45.8553 70.8998 45.8901C70.5765 46.417 70.3199 46.982 70.1358 47.5721C70.1238 47.6124 70.1038 47.6498 70.0769 47.6821C70.0501 47.7144 70.0169 47.7409 69.9795 47.76C69.9421 47.7791 69.9011 47.7904 69.8592 47.7932C69.8173 47.796 69.7752 47.7902 69.7356 47.7763C69.6651 47.7603 69.6021 47.7208 69.5569 47.6644C69.5117 47.6079 69.4869 47.5378 69.4866 47.4655L69.5545 47.5041ZM72.8988 63.9314C72.8895 63.8818 72.8921 63.8306 72.9063 63.7821C72.9205 63.7337 72.946 63.6892 72.9807 63.6525C73.0407 63.5926 73.1214 63.558 73.2062 63.5559C73.2909 63.5539 73.3732 63.5846 73.436 63.6417C73.766 63.9576 74.1328 64.2327 74.5285 64.461C74.6643 64.5382 74.8019 64.6251 74.9476 64.7005C75.0144 64.7506 75.0598 64.824 75.0746 64.9062C75.0894 64.9884 75.0725 65.0732 75.0273 65.1434C75.0034 65.179 74.9726 65.2095 74.9367 65.233C74.9008 65.2565 74.8605 65.2725 74.8183 65.2801C74.776 65.2877 74.7327 65.2868 74.6908 65.2773C74.649 65.2678 74.6095 65.25 74.5746 65.2249C74.429 65.1495 74.2914 65.0625 74.1439 64.9773C73.7199 64.7136 73.3242 64.4069 72.963 64.0621C72.9028 64.0204 72.8567 63.9614 72.8309 63.8929L72.8988 63.9314ZM74.2793 59.4661C74.269 59.414 74.2719 59.3602 74.2876 59.3095C74.3033 59.2587 74.3313 59.2127 74.3692 59.1755C74.8548 58.7122 75.3108 58.2541 75.7177 57.8049C75.7791 57.744 75.8613 57.7089 75.9477 57.7065C76.0341 57.7042 76.1182 57.7348 76.1828 57.7922C76.2136 57.8213 76.2384 57.8561 76.2557 57.8948C76.2729 57.9335 76.2824 57.9752 76.2834 58.0176C76.2844 58.0599 76.277 58.1021 76.2616 58.1416C76.2462 58.181 76.2231 58.217 76.1936 58.2475C75.7787 58.7084 75.3442 59.1727 74.8193 59.6432C74.7552 59.7008 74.6712 59.7311 74.5851 59.7276C74.4991 59.7241 74.4178 59.6871 74.3587 59.6245C74.3198 59.6064 74.2859 59.5789 74.2602 59.5445C74.2346 59.5102 74.2178 59.47 74.2114 59.4275L74.2793 59.4661ZM71.7573 44.4453C71.7447 44.3754 71.7556 44.3034 71.7884 44.2404C71.8212 44.1775 71.8741 44.1273 71.9385 44.0977C72.1561 43.9975 72.3856 43.9254 72.6213 43.8832C73.0968 43.8042 73.5839 43.831 74.0478 43.9617C74.0887 43.9728 74.127 43.9919 74.1604 44.0179C74.1939 44.0439 74.2218 44.0763 74.2426 44.1132C74.2634 44.1501 74.2767 44.1908 74.2817 44.2328C74.2867 44.2749 74.2833 44.3175 74.2717 44.3583C74.2615 44.3986 74.2433 44.4365 74.2182 44.4697C74.193 44.5029 74.1615 44.5307 74.1254 44.5514C74.0893 44.5721 74.0494 44.5854 74.0081 44.5903C73.9668 44.5953 73.9249 44.5919 73.8849 44.5803C73.5104 44.4808 73.1191 44.4613 72.7366 44.523C72.5534 44.5536 72.3754 44.6096 72.2077 44.6893C72.1695 44.7069 72.1282 44.7168 72.0861 44.7184C72.0441 44.72 72.0022 44.7133 71.9628 44.6987C71.9233 44.6841 71.8872 44.6619 71.8563 44.6333C71.8255 44.6047 71.8006 44.5703 71.7831 44.5321L71.7573 44.4453ZM76.1887 65.9503C76.1766 65.8834 76.1855 65.8144 76.2141 65.7527C76.2315 65.7139 76.2565 65.6789 76.2876 65.6498C76.3187 65.6207 76.3552 65.5982 76.3952 65.5834C76.4351 65.5686 76.4776 65.562 76.5201 65.5639C76.5626 65.5657 76.6043 65.576 76.6428 65.5942C77.2201 65.8662 77.8136 66.115 78.4045 66.2931C78.444 66.3079 78.4801 66.3304 78.5108 66.3592C78.5416 66.3881 78.5663 66.4227 78.5836 66.4611C78.6009 66.4995 78.6104 66.541 78.6117 66.5831C78.6129 66.6253 78.6058 66.6672 78.5908 66.7066C78.5759 66.746 78.5534 66.7821 78.5246 66.8129C78.4958 66.8436 78.4611 66.8683 78.4227 66.8856C78.3843 66.9029 78.3428 66.9125 78.3007 66.9137C78.2586 66.915 78.2166 66.9078 78.1773 66.8928C77.5694 66.6771 76.9643 66.4203 76.3655 66.142C76.3069 66.1312 76.2526 66.1037 76.2093 66.0629C76.1659 66.0221 76.1352 65.9696 76.1208 65.9118L76.1887 65.9503ZM76.8941 56.6074C76.8862 56.5626 76.888 56.5166 76.8993 56.4725C76.9107 56.4284 76.9313 56.3872 76.9598 56.3517C77.3449 55.8501 77.6983 55.325 78.0179 54.7793C78.0679 54.7095 78.1431 54.6619 78.2277 54.6467C78.3122 54.6315 78.3994 54.6498 78.4706 54.6978C78.5395 54.7463 78.5865 54.8199 78.6015 54.9028C78.6164 54.9857 78.598 55.0712 78.5503 55.1407C78.2146 55.7096 77.8451 56.2579 77.4438 56.7828C77.4199 56.8184 77.3891 56.8489 77.3532 56.8724C77.3173 56.8959 77.277 56.9119 77.2348 56.9195C77.1925 56.9271 77.1492 56.9261 77.1073 56.9166C77.0655 56.9072 77.026 56.8894 76.9911 56.8643C76.9388 56.8354 76.8955 56.7924 76.8664 56.7401C76.8372 56.6879 76.8233 56.6286 76.8262 56.5688L76.8941 56.6074ZM75.3919 45.1624C75.3783 45.0833 75.3923 45.0018 75.4317 44.9318C75.4832 44.8639 75.5583 44.8179 75.6421 44.8028C75.726 44.7877 75.8124 44.8046 75.8844 44.8502C76.4531 45.1967 76.9926 45.5889 77.4977 46.0229C77.5294 46.0505 77.5554 46.0841 77.574 46.1218C77.5927 46.1595 77.6038 46.2005 77.6066 46.2424C77.6095 46.2844 77.604 46.3265 77.5906 46.3663C77.5771 46.4061 77.556 46.443 77.5283 46.4746C77.471 46.5395 77.3904 46.5792 77.3041 46.5852C77.2178 46.5913 77.1325 46.5632 77.0667 46.5069C76.593 46.0978 76.0849 45.7304 75.548 45.4087C75.4882 45.3862 75.4358 45.3477 75.3963 45.2975C75.3568 45.2473 75.3318 45.1873 75.324 45.1239L75.3919 45.1624ZM79.8214 67.2775C79.804 67.2337 79.7955 67.1869 79.7966 67.1397C79.8077 67.0988 79.8269 67.0606 79.8529 67.0271C79.8789 66.9937 79.9113 66.9657 79.9482 66.9449C79.9851 66.9241 80.0257 66.9108 80.0678 66.9058C80.1099 66.9008 80.1525 66.9043 80.1933 66.9159C80.8119 67.0788 81.4351 67.2105 82.0646 67.3207C82.148 67.3354 82.2222 67.3826 82.2709 67.4519C82.3195 67.5212 82.3387 67.607 82.3243 67.6905C82.3181 67.7325 82.3037 67.7728 82.2818 67.8092C82.2599 67.8456 82.2309 67.8773 82.1967 67.9023C82.1624 67.9274 82.1235 67.9454 82.0822 67.9553C82.0409 67.9652 81.9981 67.9668 81.9562 67.96C81.3053 67.8435 80.6606 67.7056 80.0303 67.5346C79.9564 67.5267 79.8878 67.4925 79.837 67.4382C79.7862 67.3839 79.7566 67.3132 79.7535 67.2389L79.8214 67.2775ZM78.8067 53.2351C78.7992 53.1788 78.8064 53.1215 78.8275 53.0687C79.042 52.4923 79.1795 51.8902 79.2366 51.2779C79.2397 51.2359 79.251 51.195 79.27 51.1575C79.2889 51.1199 79.315 51.0865 79.3469 51.059C79.3788 51.0316 79.4157 51.0107 79.4557 50.9976C79.4956 50.9844 79.5377 50.9792 79.5797 50.9824C79.6221 50.9841 79.6637 50.9946 79.7019 51.0131C79.7401 51.0315 79.7741 51.0577 79.8018 51.0898C79.8295 51.122 79.8503 51.1595 79.8629 51.2C79.8756 51.2406 79.8797 51.2833 79.8751 51.3255C79.8153 51.998 79.6681 52.6598 79.4371 53.2943C79.4054 53.3749 79.3432 53.4399 79.264 53.475C79.1848 53.5102 79.0949 53.5128 79.0138 53.4823C78.9466 53.4713 78.8845 53.4399 78.8359 53.3922C78.7873 53.3446 78.7546 53.2831 78.7423 53.2162L78.8067 53.2351ZM78.2579 47.7048C78.2477 47.6429 78.2548 47.5795 78.2784 47.5215C78.302 47.4634 78.3412 47.413 78.3917 47.3759C78.4614 47.3289 78.5469 47.3112 78.6296 47.3268C78.7122 47.3423 78.7855 47.3898 78.8334 47.4589C79.2318 48.0283 79.5282 48.6625 79.7095 49.3333C79.721 49.374 79.7243 49.4165 79.7193 49.4585C79.7143 49.5004 79.701 49.541 79.6803 49.5778C79.6595 49.6146 79.6316 49.6469 79.5983 49.6729C79.565 49.6989 79.5268 49.718 79.4861 49.7291C79.4454 49.7421 79.4025 49.7466 79.3601 49.7422C79.3176 49.7379 79.2766 49.7248 79.2394 49.7038C79.2023 49.6829 79.1698 49.6544 79.1441 49.6204C79.1185 49.5863 79.1001 49.5473 79.0902 49.5058C78.9225 48.9181 78.6609 48.3613 78.3157 47.8569C78.2563 47.8159 78.2131 47.7554 78.1935 47.6859L78.2579 47.7048ZM83.6325 67.902L83.6183 67.8232C83.6266 67.7374 83.6682 67.6582 83.7341 67.6027C83.8001 67.5471 83.8852 67.5196 83.9712 67.526C84.5999 67.5753 85.243 67.5916 85.8709 67.5802C85.9135 67.5787 85.956 67.5857 85.9959 67.6009C86.0358 67.6161 86.0723 67.6391 86.1031 67.6685C86.134 67.698 86.1587 67.7333 86.1757 67.7725C86.1927 67.8116 86.2017 67.8538 86.2021 67.8965C86.2026 67.9819 86.1698 68.0641 86.1108 68.1259C86.0519 68.1877 85.9712 68.2242 85.8859 68.2278C85.2383 68.2428 84.5738 68.2202 83.9254 68.1744C83.8396 68.182 83.7542 68.1559 83.6874 68.1015C83.6207 68.047 83.5778 67.9687 83.5681 67.8831L83.6325 67.902ZM87.5099 67.8235C87.5036 67.7811 87.5058 67.7378 87.5165 67.6962C87.5272 67.6546 87.5462 67.6156 87.5723 67.5815C87.5984 67.5475 87.6311 67.519 87.6684 67.4978C87.7058 67.4766 87.747 67.4631 87.7896 67.4582C88.1931 67.3855 88.5868 67.3146 88.9903 67.242C89.2167 67.2012 89.443 67.1604 89.6694 67.1197C89.7105 67.1109 89.7529 67.1103 89.7943 67.118C89.8356 67.1257 89.8751 67.1414 89.9103 67.1643C89.9456 67.1872 89.976 67.2168 89.9998 67.2515C90.0236 67.2861 90.0404 67.3252 90.0491 67.3663C90.0593 67.408 90.0611 67.4513 90.0543 67.4937C90.0474 67.5361 90.0321 67.5767 90.0093 67.613C89.9864 67.6493 89.9565 67.6807 89.9213 67.7053C89.8861 67.7298 89.8463 67.747 89.8043 67.7558C89.5681 67.7984 89.3417 67.8391 89.1055 67.8817C88.6921 67.9561 88.2788 68.0305 87.8654 68.105C87.8177 68.1207 87.7669 68.1249 87.7172 68.1173C87.6675 68.1097 87.6203 68.0905 87.5794 68.0612C87.5385 68.032 87.5051 67.9935 87.4818 67.9489C87.4586 67.9044 87.4461 67.8549 87.4456 67.8046L87.5099 67.8235ZM91.2956 67.0097C91.2811 66.9327 91.2954 66.853 91.3358 66.7858C91.3761 66.7186 91.4397 66.6686 91.5145 66.6452C92.1105 66.4565 92.711 66.2366 93.3062 65.9872C93.3454 65.9712 93.3874 65.9632 93.4297 65.9636C93.472 65.9639 93.5138 65.9727 93.5527 65.9893C93.5916 66.0059 93.6268 66.0301 93.6563 66.0604C93.6858 66.0907 93.709 66.1266 93.7245 66.1659C93.7568 66.2436 93.7571 66.3308 93.7255 66.4088C93.6939 66.4867 93.6329 66.5491 93.5557 66.5824C92.9408 66.8354 92.3223 67.0687 91.7067 67.2609C91.6662 67.2738 91.6236 67.2786 91.5814 67.275C91.5391 67.2713 91.4979 67.2593 91.4603 67.2396C91.4228 67.2199 91.3894 67.1928 91.3624 67.1602C91.3353 67.1275 91.3151 67.0897 91.3027 67.0491L91.2956 67.0097ZM94.8687 65.5229C94.8449 65.4671 94.8379 65.4054 94.8489 65.3456C94.8598 65.2858 94.888 65.2306 94.9301 65.1867C95.4869 64.8934 96.0483 64.5688 96.5864 64.228C96.6216 64.205 96.661 64.189 96.7024 64.1812C96.7437 64.1734 96.7862 64.1738 96.8274 64.1825C96.8686 64.1911 96.9077 64.2078 96.9424 64.2315C96.9772 64.2553 97.0069 64.2856 97.0299 64.3209C97.0742 64.3953 97.0884 64.4839 97.0697 64.5684C97.0509 64.653 97.0006 64.7273 96.9289 64.776C96.3827 65.1284 95.8017 65.4565 95.2368 65.7615C95.159 65.8008 95.0688 65.8078 94.9859 65.7808C94.903 65.7538 94.8341 65.6952 94.7943 65.6176L94.8687 65.5229ZM98.1297 63.4319C98.1188 63.375 98.1241 63.3163 98.1449 63.2622C98.1657 63.2082 98.2012 63.1611 98.2474 63.1262C98.757 62.7398 99.2416 62.3273 99.7128 61.897C99.7781 61.8401 99.8633 61.8112 99.9498 61.8165C100.036 61.8218 100.117 61.861 100.175 61.9255C100.204 61.9566 100.227 61.9932 100.241 62.0333C100.255 62.0734 100.261 62.1159 100.258 62.1584C100.256 62.2008 100.244 62.2422 100.224 62.28C100.205 62.3178 100.178 62.3512 100.145 62.3781C99.6656 62.82 99.1613 63.236 98.649 63.6635C98.58 63.7154 98.4935 63.7382 98.4079 63.727C98.3223 63.7159 98.2445 63.6716 98.1911 63.6037L98.1297 63.4319ZM100.994 60.833C100.988 60.7848 100.992 60.7356 101.006 60.6891C101.021 60.6426 101.045 60.5999 101.078 60.564C101.513 60.0996 101.922 59.6092 102.32 59.1108C102.37 59.041 102.446 58.9934 102.53 58.9782C102.615 58.9629 102.702 58.9813 102.773 59.0293C102.809 59.0532 102.839 59.084 102.863 59.1199C102.886 59.1558 102.902 59.1961 102.91 59.2384C102.917 59.2806 102.916 59.3239 102.907 59.3658C102.897 59.4076 102.88 59.4472 102.854 59.482C102.448 59.992 102.019 60.4859 101.577 60.9619C101.518 61.0259 101.436 61.0641 101.349 61.0683C101.263 61.0725 101.178 61.0424 101.113 60.9844C101.034 60.9513 100.969 60.891 100.93 60.8142L100.994 60.833ZM103.395 57.7996C103.387 57.7595 103.388 57.7183 103.397 57.6784C103.405 57.6385 103.421 57.6007 103.444 57.5671C103.796 57.0364 104.134 56.4878 104.441 55.9347C104.461 55.8977 104.488 55.865 104.521 55.8385C104.553 55.812 104.591 55.7922 104.631 55.7803C104.671 55.7683 104.714 55.7644 104.756 55.7687C104.797 55.7731 104.838 55.7857 104.875 55.8057C104.912 55.8257 104.945 55.8528 104.971 55.8855C104.998 55.9181 105.017 55.9557 105.029 55.996C105.041 56.0363 105.045 56.0786 105.041 56.1204C105.037 56.1622 105.024 56.2028 105.004 56.2398C104.691 56.8143 104.345 57.3745 103.987 57.9267C103.937 57.9965 103.861 58.0441 103.777 58.0593C103.692 58.0746 103.605 58.0562 103.534 58.0082C103.486 57.987 103.443 57.9557 103.408 57.9164C103.373 57.8772 103.346 57.8309 103.33 57.7807L103.395 57.7996ZM105.265 54.4147C105.256 54.3522 105.262 54.2885 105.282 54.2286C105.542 53.6432 105.781 53.0515 105.979 52.457C105.992 52.4163 106.013 52.3785 106.04 52.3459C106.068 52.3134 106.102 52.2867 106.14 52.2675C106.179 52.2483 106.22 52.237 106.263 52.2342C106.306 52.2314 106.349 52.2371 106.389 52.2511C106.47 52.2794 106.536 52.338 106.575 52.4145C106.613 52.491 106.62 52.5794 106.595 52.6611C106.381 53.2788 106.146 53.8902 105.907 54.4819C105.89 54.5214 105.866 54.5572 105.835 54.5871C105.805 54.6171 105.769 54.6406 105.729 54.6563C105.689 54.672 105.646 54.6795 105.604 54.6785C105.561 54.6774 105.519 54.6679 105.48 54.6502C105.407 54.6472 105.338 54.6198 105.284 54.5724C105.229 54.525 105.192 54.4605 105.179 54.3895L105.265 54.4147ZM106.504 50.7469L106.483 50.6288C106.634 50.0082 106.752 49.3799 106.835 48.7466C106.85 48.6629 106.896 48.5882 106.965 48.538C107.033 48.4878 107.119 48.466 107.203 48.4771C107.288 48.4897 107.365 48.535 107.417 48.6035C107.469 48.6719 107.493 48.758 107.482 48.8434C107.384 49.481 107.267 50.1319 107.118 50.7685C107.097 50.8525 107.044 50.9251 106.971 50.9706C106.897 51.0162 106.809 51.031 106.725 51.012C106.65 51.0044 106.58 50.9708 106.528 50.9171C106.476 50.8634 106.444 50.793 106.438 50.7182L106.504 50.7469Z" fill="#999999"/>
</svg>
